<?xml version="1.0" encoding="UTF-8" standalone="no"?>
<svg
   xmlns:dc="http://purl.org/dc/elements/1.1/"
   xmlns:cc="http://creativecommons.org/ns#"
   xmlns:rdf="http://www.w3.org/1999/02/22-rdf-syntax-ns#"
   xmlns:svg="http://www.w3.org/2000/svg"
   xmlns="http://www.w3.org/2000/svg"
   xmlns:sodipodi="http://sodipodi.sourceforge.net/DTD/sodipodi-0.dtd"
   xmlns:inkscape="http://www.inkscape.org/namespaces/inkscape"
   width="280"
   height="200"
   viewBox="0 0 74.083334 52.916666"
   version="1.1"
   id="svg839"
   inkscape:version="1.0.2 (1.0.2+r75+1)"
   sodipodi:docname="car-running-bg2.svg">
  <defs
     id="defs833" />
  <sodipodi:namedview
     id="base"
     pagecolor="#ffffff"
     bordercolor="#666666"
     borderopacity="1.0"
     inkscape:pageopacity="0.0"
     inkscape:pageshadow="2"
     inkscape:zoom="1.4142136"
     inkscape:cx="120.83585"
     inkscape:cy="138.52354"
     inkscape:document-units="mm"
     inkscape:current-layer="layer1"
     inkscape:document-rotation="0"
     showgrid="false"
     units="px"
     inkscape:window-width="1318"
     inkscape:window-height="704"
     inkscape:window-x="48"
     inkscape:window-y="27"
     inkscape:window-maximized="1" />
  <metadata
     id="metadata836">
    <rdf:RDF>
      <cc:Work
         rdf:about="">
        <dc:format>image/svg+xml</dc:format>
        <dc:type
           rdf:resource="http://purl.org/dc/dcmitype/StillImage" />
        <dc:title />
      </cc:Work>
    </rdf:RDF>
  </metadata>
  <g
     inkscape:label="Layer 1"
     inkscape:groupmode="layer"
     id="layer1">
    <rect
       style="opacity:0.999;fill:#faf3e2;fill-opacity:1;fill-rule:evenodd;stroke:none;stroke-width:0.60661;stroke-linecap:round;stroke-linejoin:round;paint-order:stroke fill markers"
       id="rect1402"
       width="74.082176"
       height="41.537891"
       x="0.001679123"
       y="0.0015557291" />
    <rect
       style="opacity:0.999;fill:#f8d530;fill-opacity:1;fill-rule:evenodd;stroke:none;stroke-width:0.31747;stroke-linecap:round;stroke-linejoin:round;paint-order:stroke fill markers"
       id="rect1404"
       width="74.082176"
       height="11.377083"
       x="0.001679123"
       y="41.539448" />
    <g
       id="g50"
       transform="matrix(0.02495449,0,0,0.02495449,52.835628,27.188686)"
       style="display:none"
       inkscape:label="hotel">
      <g
         id="g6"
         style="display:inline"
         transform="translate(106.02634,84.821076)">
        <g
           id="g4">
          <path
             d="M 445.437,31.625 V 0 H 213.914 v 31.786 h -64.195 v 191.136 c 37.569,20.426 63.126,60.255 63.126,105.942 0,27.146 -17.807,71.454 -54.441,135.455 -2.912,5.088 -5.817,10.072 -8.685,14.927 v 28.848 h 165.23 v -96.819 h 31.57 v 96.819 H 508.577 V 31.839 Z m -162.06,345.704 h -31.572 v -31.57 h 31.572 z m 0,-63.143 h -31.572 v -31.57 h 31.572 z m 0,-61.692 h -31.572 v -31.57 h 31.572 z m 63.143,124.835 h -31.572 v -31.57 h 31.572 z m 0,-63.143 h -31.572 v -31.57 h 31.572 z m 0,-61.692 h -31.572 v -31.57 h 31.572 z m 31.571,-73.666 h -31.57 v -36.834 h -31.574 v 36.834 h -31.57 V 73.59 h 31.57 v 36.834 h 31.574 V 73.59 h 31.57 z m 31.573,198.501 h -31.572 v -31.57 h 31.572 z m 0,-63.143 h -31.572 v -31.57 h 31.572 z m 0,-61.692 h -31.572 v -31.57 h 31.572 z"
             fill="#ffffff"
             data-original="#000000"
             id="path2"
             style="fill:#3d3d3d;fill-opacity:1" />
        </g>
      </g>
      <g
         id="g12"
         style="display:inline;opacity:1"
         transform="translate(106.02634,84.821076)">
        <g
           id="g10">
          <path
             d="m 92.35,239.937 c -49.034,0 -88.927,39.893 -88.927,88.926 0,11.919 6.518,43.304 50.175,119.604 C 67.92,473.5 82.365,496.52 92.35,512 c 9.984,-15.48 24.43,-38.5 38.752,-63.533 43.656,-76.3 50.175,-107.686 50.175,-119.604 -10e-4,-49.034 -39.893,-88.926 -88.927,-88.926 z m 0,147.545 c -32.323,0 -58.62,-26.297 -58.62,-58.62 0,-32.323 26.296,-58.62 58.62,-58.62 32.323,0 58.62,26.297 58.62,58.62 0,32.323 -26.297,58.62 -58.62,58.62 z"
             fill="#ffffff"
             data-original="#000000"
             id="path8"
             style="fill:#3d3d3d;fill-opacity:1" />
        </g>
      </g>
      <g
         id="g18">
        <g
           id="g16"
           style="fill:#3d3d3d;fill-opacity:1"
           transform="translate(106.02634,84.821076)">
          <path
             d="m 92.35,301.813 c -14.915,0 -27.05,12.134 -27.05,27.05 0,14.916 12.134,27.05 27.05,27.05 14.916,0 27.05,-12.134 27.05,-27.05 0,-14.915 -12.136,-27.05 -27.05,-27.05 z"
             fill="#ffffff"
             data-original="#000000"
             id="path14"
             style="fill:#3d3d3d;fill-opacity:1" />
        </g>
      </g>
      <g
         id="g20" />
      <g
         id="g22" />
      <g
         id="g24" />
      <g
         id="g26" />
      <g
         id="g28" />
      <g
         id="g30" />
      <g
         id="g32" />
      <g
         id="g34" />
      <g
         id="g36" />
      <g
         id="g38" />
      <g
         id="g40" />
      <g
         id="g42" />
      <g
         id="g44" />
      <g
         id="g46" />
      <g
         id="g48" />
    </g>
    <g
       id="g926"
       inkscape:label="Trees"
       style="display:none">
      <path
         d="m 18.533824,25.056196 c -0.601734,-0.545226 -1.333289,-0.771501 -2.07617,-0.747388 -0.07782,-0.337219 -0.25185,-0.658607 -0.458517,-0.846519 -0.184867,-0.168062 -0.426974,-0.281321 -0.678214,-0.326015 -0.0026,-1.745041 -1.317944,-3.468891 -2.880675,-4.107891 -1.550186,-0.634007 -3.1788013,-0.341726 -4.3889673,0.618784 -0.8596111,-0.502602 -2.2007558,-0.05578 -2.850448,0.59333 -0.595937,0.595402 -0.8856,1.588184 -0.674427,2.426909 -0.273916,-0.06126 -0.565674,0.04603 -0.748447,0.305921 -0.101616,0.144557 -0.153423,0.338437 -0.154129,0.534265 -1.539957,-0.256842 -3.00468802,1.478943 -3.36866302,2.820027 -0.335807,1.237202 0.207507,2.929875 1.50037702,3.325551 0.19366,0.786358 0.804723,1.528022 1.498367,1.838814 0.573188,0.25672 1.556544,0.152839 2.157145,-0.286557 0.1857203,0.3332 0.5451654,0.61038 0.9410116,0.555699 0.1538495,-0.02119 0.354269,-0.122392 0.4827632,-0.262322 0.3456103,0.257451 0.7729013,0.430018 1.1782098,0.561911 0.8239896,0.267924 1.9540218,0.365838 2.8380507,0.05115 0.08403,0.06966 0.173176,0.130674 0.26622,0.180849 0.454375,0.245029 0.973052,0.01595 1.294196,-0.373511 0.33247,0.251605 0.743978,0.38167 1.208096,0.302511 0.778199,-0.132501 1.259854,-0.677118 1.539956,-1.336578 1.630199,0.275474 3.434183,-0.80414 4.075253,-2.452849 0.4629,-1.19068 0.267803,-2.498152 -0.700988,-3.376091"
         style="display:inline;opacity:0.997;fill:#5c5757;fill-opacity:1;fill-rule:nonzero;stroke:none;stroke-width:0.0121784"
         id="path16" />
      <path
         d="m 18.682888,29.395841 c -1.312586,0.659216 -2.456259,-0.311402 -2.456259,-0.311402 -1.370068,1.216621 -2.70969,-0.151133 -2.70969,-0.151133 -1.187392,0.608919 -1.948541,-0.819483 -1.948541,-0.819483 -2.5574607,1.555422 -3.3185488,-0.743613 -3.3185488,-0.743613 0,0 -1.3396223,1.22819 -2.2530009,-0.414917 -0.9133786,-1.643108 0.8829328,-2.692397 0.8829328,-2.692397 0,0 -1.1873925,0.133962 -1.4918524,-2.149485 -0.234093,-1.755879 1.0432492,-2.449073 1.6463229,-2.675834 -0.6882248,0.0425 -1.4086005,0.378504 -1.8334189,0.80292 -0.595937,0.595402 -0.8856,1.588184 -0.674427,2.426909 -0.273916,-0.06126 -0.565674,0.04603 -0.748447,0.305921 -0.101616,0.144557 -0.153423,0.338437 -0.154129,0.534265 -1.539957,-0.256842 -3.00468802,1.478943 -3.36866302,2.820027 -0.335807,1.237202 0.207507,2.929875 1.50037702,3.325551 0.19366,0.786358 0.804723,1.528022 1.498367,1.838814 0.573188,0.25672 1.556544,0.152839 2.157145,-0.286557 0.1857203,0.3332 0.5451654,0.61038 0.9410116,0.555699 0.1538495,-0.02119 0.354269,-0.122392 0.4827632,-0.262322 0.3456103,0.257451 0.7729013,0.430018 1.1782098,0.561911 0.8239896,0.267924 1.9540218,0.365838 2.8380507,0.05115 0.08403,0.06966 0.173176,0.130674 0.26622,0.180849 0.454375,0.245029 0.973052,0.01595 1.294196,-0.373511 0.33247,0.251605 0.743978,0.38167 1.208218,0.302511 0.778077,-0.132501 1.259732,-0.677118 1.539834,-1.336578 1.28482,0.21714 2.677053,-0.407855 3.523329,-1.489295"
         style="display:inline;opacity:0.997;fill:#3d3d3d;fill-opacity:1;fill-rule:nonzero;stroke:none;stroke-width:0.0121784"
         id="path18" />
      <path
         d="m 5.7430508,28.191886 c 0.2448586,-0.05273 0.5173011,-0.175734 0.7737171,-0.154178 0.2529328,0.02131 0.4230038,0.139929 0.5921739,0.278763 0.5957786,0.774179 1.3352377,1.414275 1.6509259,2.387206 0.4119459,1.269231 0.00238,2.843409 -0.1968027,4.1208 -0.2142664,1.374209 -0.5174838,2.726375 -0.8012524,4.087187 -0.1198839,0.574577 -0.2232054,1.152806 -0.2977492,1.735176 -0.052428,0.409925 -0.186719,1.01446 -0.09677,1.469566 h 3.1646016 c 0.09475,-0.530125 -0.128604,-1.11761 -0.176586,-1.651876 -0.05687,-0.634494 -0.06686,-1.271911 -0.05967,-1.908596 0.01498,-1.33061 0.09706,-2.658054 0.04701,-3.989152 -0.0085,-0.225909 -0.02058,-0.451696 -0.0341,-0.67724 0.01827,-0.208981 0.0408,-0.419058 0.06978,-0.632179 6.21e-4,-0.0038 0.0011,-0.0076 0.0017,-0.01133 0.106195,-0.760418 0.428191,-1.474802 0.900591,-2.080068 0.50248,-0.643627 1.076448,-1.291517 1.392477,-2.006875 0.177075,-0.26098 0.338438,-0.53475 0.519531,-0.794028 0.440614,-0.630596 1.017747,-0.823502 1.740656,-0.971469 0.777955,-0.15905 1.629955,-0.367057 1.842589,-1.228921 0.01364,-0.05493 -0.06589,-0.0928 -0.09389,-0.03958 -0.579325,1.100926 -2.026118,0.709269 -2.978832,1.138435 -0.140661,0.06333 -0.264393,0.142244 -0.37753,0.23212 0.315298,-0.872337 0.540111,-1.780236 0.688931,-2.703236 0.01376,-0.08501 -0.109971,-0.123732 -0.132136,-0.03641 -0.553751,2.194423 -1.736759,4.228092 -3.247609,5.906394 -0.207763,0.230902 -0.392144,0.457299 -0.557527,0.687592 -0.02387,-0.194002 -0.04652,-0.388003 -0.07283,-0.581762 -0.090363,-0.664087 -0.2158004,-1.328052 -0.2757182,-1.995549 -0.028377,-0.316395 -0.013519,-0.617931 0.016563,-0.918129 0.049079,-0.1666 0.1170341,-0.326137 0.2125127,-0.473739 0.3833755,-0.592965 0.9849875,-1.026759 1.3718945,-1.628615 0.415405,-0.64582 0.66494,-1.317945 0.833976,-2.06521 0.01547,-0.06832 -0.0777,-0.09085 -0.102785,-0.02838 -0.220064,0.547296 -0.522209,1.077665 -0.880619,1.560051 0.0029,-0.02521 0.0058,-0.0503 0.0082,-0.0738 0.09122,-0.904854 -0.140782,-1.732862 0.174394,-2.617744 0.02131,-0.05955 -0.06162,-0.08208 -0.09389,-0.03958 -0.3919,0.516851 -0.449869,1.223562 -0.476661,1.854037 -0.01668,0.393849 -0.0028,0.791717 -0.0984,1.178259 -0.0453,0.183528 -0.139808,0.34818 -0.222987,0.514415 C 10.080187,26.409336 9.6407906,26.72707 9.3653157,27.190336 9.3150187,26.768233 9.1968885,26.350149 9.1703398,25.921713 9.1385528,25.409734 9.1669198,24.907011 9.2758045,24.403922 9.4626212,23.540718 10.128048,22.726714 10.07836,21.83136 10.07508,21.772417 9.983125,21.752566 9.9699725,21.816623 9.8452657,22.422619 9.4945282,22.881257 9.1957925,23.40785 8.9394376,23.860156 8.773361,24.346926 8.692119,24.860488 8.666801,25.020877 8.648447,25.193932 8.639265,25.373563 8.623568,25.349206 8.60977,25.323875 8.593073,25.300249 8.0622654,24.548964 7.0986023,24.13429 6.7991357,23.219937 c -0.024503,-0.0749 -0.1331097,-0.04445 -0.117448,0.03239 0.1666852,0.818509 0.8126147,1.2657 1.3046945,1.889477 0.6348955,0.804869 0.6665838,1.855985 0.9643816,2.797374 0.035805,0.572871 0.06966,1.145986 0.093287,1.718857 C 8.8344605,29.295611 8.5716629,28.957296 8.2807579,28.619589 7.4915501,27.703531 6.8336737,26.754957 6.6275422,25.535779 c -0.011654,-0.06905 -0.1305399,-0.05383 -0.1233059,0.01668 0.079732,0.776129 0.2526528,1.489295 0.585281,2.164951 -0.1820548,-0.08829 -0.3737304,-0.139807 -0.5727615,-0.12909 -0.309319,0.01656 -0.6021236,0.143339 -0.8980221,0.24442 -0.28719,-0.198508 -0.578997,-0.372659 -0.841441,-0.614887 -0.298468,-0.275353 -0.561825,-0.572384 -0.804869,-0.897912 -0.01165,-0.01559 -0.04329,-0.0073 -0.03483,0.01474 0.236346,0.608675 0.689467,1.228555 1.25894,1.608643 -0.532183,0.09219 -1.062844,0.03958 -1.573009,-0.142609 -0.03963,-0.01413 -0.06498,0.04238 -0.02783,0.06211 0.677094,0.358531 1.393049,0.491276 2.147342,0.32906"
         style="opacity:0.997;fill:#5b5b5b;fill-opacity:1;fill-rule:nonzero;stroke:none;stroke-width:0.0121784"
         id="path20" />
      <path
         d="m 8.9507759,27.939185 c 0.035805,0.572871 0.06966,1.145985 0.093286,1.718856 -0.00597,-0.01035 -0.013153,-0.02034 -0.019121,-0.03069 0.012787,0.08379 0.019121,0.132257 0.019121,0.132257 l 0.3017806,0.462535 c 0,0 0.040675,-0.730703 0,-1.359838 C 9.3052889,28.233049 8.9804912,26.771643 8.8181533,26.345399 8.6557791,25.919156 8.4612659,25.231443 7.701822,24.681102 7.2872817,24.380539 6.9324404,23.791471 6.6954855,23.308232 c 0.1843443,0.782705 0.8103861,1.224415 1.2909088,1.833578 0.6348955,0.804869 0.6665837,1.855985 0.9643816,2.797375"
         style="opacity:0.997;fill:#7e7774;fill-opacity:1;fill-rule:nonzero;stroke:none;stroke-width:0.0121784"
         id="path22" />
      <path
         d="M 9.2647349,30.891955 C 9.0413831,30.303374 7.7627139,28.476617 7.4785676,28.233049 7.1943729,27.989481 6.8514784,27.728133 5.8547506,28.090927 c -0.7129589,0.259643 -1.5474099,0.05127 -1.9648119,-0.08842 0.589373,0.250266 1.207134,0.328329 1.8531121,0.189374 0.2448586,-0.05273 0.5173011,-0.175734 0.7737171,-0.154178 0.2529328,0.02131 0.4230038,0.139929 0.5921739,0.278763 0.5957786,0.774179 1.3352377,1.414275 1.6509259,2.387206 0.4119459,1.269231 0.00238,2.843409 -0.1968027,4.1208 -0.2142664,1.374209 -0.5174838,2.726375 -0.8012524,4.087187 -0.1198839,0.574577 -0.2232054,1.152806 -0.2977492,1.735176 -0.052428,0.409925 -0.186719,1.01446 -0.09677,1.469566 h 2.1026467 c -0.3607237,-3.24761 -0.1849894,-6.535773 -0.063205,-8.118963 0.1217835,-1.58319 0.08123,-2.516785 -0.142,-3.105488"
         style="opacity:0.997;fill:#332f2f;fill-opacity:1;fill-rule:nonzero;stroke:none;stroke-width:0.0121784"
         id="path24" />
      <path
         d="m 13.897636,25.434456 c -0.05553,0.03544 -0.126899,0.108388 -0.126899,0.108388 l 0.162703,-0.83495 c -0.02265,0.0029 -0.04323,0.01729 -0.05103,0.0481 -0.553751,2.194423 -1.736759,4.228091 -3.24761,5.906393 -0.207763,0.230903 -0.392144,0.457299 -0.557526,0.687592 l 0.100228,0.596741 c 0,0 1.928812,-2.292824 2.355056,-3.185986 0.425756,-0.891945 0.972931,-2.411564 1.29785,-3.011593 0.02338,-0.104612 0.04591,-0.20959 0.06722,-0.314689"
         style="opacity:0.997;fill:#7e7774;fill-opacity:1;fill-rule:nonzero;stroke:none;stroke-width:0.0121784"
         id="path26" />
      <path
         d="m 16.757972,26.113036 c -0.110579,0.214583 -0.28059,0.501506 -0.500896,0.652152 -0.365352,0.250023 -1.167055,0.204354 -1.73542,0.569705 -0.568365,0.365352 -1.104579,0.05626 -1.503665,1.291639 -1.22e-4,2.44e-4 -1.22e-4,4.87e-4 -2.44e-4,7.32e-4 0.05712,-0.08829 0.114843,-0.176099 0.174882,-0.2622 0.440614,-0.630597 1.017747,-0.823503 1.740656,-0.97147 0.777955,-0.15905 1.629955,-0.367056 1.84259,-1.228921 0.0052,-0.02131 -0.0037,-0.03982 -0.0179,-0.05164"
         style="opacity:0.997;fill:#7e7774;fill-opacity:1;fill-rule:nonzero;stroke:none;stroke-width:0.0121784"
         id="path28" />
      <path
         d="m 9.0870522,24.04673 c 0.1826759,-0.624143 0.4566895,-0.943825 0.7291199,-1.415738 0.2061799,-0.357191 0.1883999,-0.640095 0.2140959,-0.852365 -0.0257,-0.0055 -0.053463,0.0049 -0.060283,0.038 -0.1247068,0.605997 -0.4754443,1.064634 -0.77418,1.591228 -0.2563549,0.452305 -0.4224315,0.939075 -0.5036735,1.452637 -0.02488,0.15771 -0.042868,0.327964 -0.052197,0.504186 l 0.2035496,0.280468 c 0,0 0.060892,-0.974271 0.2435678,-1.598413"
         style="opacity:0.997;fill:#7e7774;fill-opacity:1;fill-rule:nonzero;stroke:none;stroke-width:0.0121784"
         id="path30" />
      <path
         d="m 12.163677,23.68698 c 0.0078,-0.03459 -0.01218,-0.05724 -0.03702,-0.06321 -0.06856,0.344648 -0.206545,0.907899 -0.543034,1.397226 -0.502358,0.730703 -1.309176,1.537521 -1.6288587,1.933318 -0.3196827,0.395798 -0.2307804,1.159504 -0.2307804,1.159504 l 4.833e-4,-3.66e-4 c 0.00536,-0.08659 0.012179,-0.172811 0.020823,-0.258912 0.049079,-0.1666 0.1170341,-0.326137 0.2125127,-0.473739 0.3833761,-0.592966 0.9849881,-1.02676 1.3718951,-1.628615 0.415404,-0.64582 0.66494,-1.317945 0.833975,-2.065211"
         style="opacity:0.997;fill:#7e7774;fill-opacity:1;fill-rule:nonzero;stroke:none;stroke-width:0.0121784"
         id="path32" />
      <path
         d="m 11.005147,24.488196 c 0.04567,-0.790864 -0.038,-1.396252 0.217263,-1.934414 -0.349398,0.510152 -0.404444,1.183738 -0.43014,1.787786 -0.01668,0.393849 -0.0028,0.791717 -0.0984,1.178259 -0.0397,0.160754 -0.116913,0.306895 -0.191323,0.452305 l 0.456933,-0.692341 c 0,0 0,0 0.04567,-0.791595"
         style="opacity:0.997;fill:#7e7774;fill-opacity:1;fill-rule:nonzero;stroke:none;stroke-width:0.0121784"
         id="path34" />
      <path
         d="m 33.280751,24.929419 c -0.329669,-0.993513 -1.248284,-1.624962 -2.186385,-1.624475 -0.09402,-0.295569 -0.371319,-0.591138 -0.585171,-0.716332 -0.07331,-0.04287 -0.155762,-0.07648 -0.24235,-0.100716 -0.03191,-0.47654 -0.244664,-0.928358 -0.753112,-1.08278 -0.225421,-0.06856 -0.502845,-0.04835 -0.777711,0.0313 -0.733017,-1.033822 -2.674617,-0.568852 -3.510419,0.09621 -0.83422,0.664087 -1.315022,1.894956 -1.12577,2.97323 -0.211539,0.06272 -0.408463,0.195341 -0.540233,0.378139 -0.216167,0.29971 -0.270969,0.75506 -0.151256,1.134904 -0.637416,0.365473 -0.739958,1.375183 -0.549245,2.071177 0.246247,0.898156 1.104579,1.288473 1.847339,0.915205 0.137738,0.501872 0.44171,0.8984 1.023715,1.073038 0.665549,0.199725 1.501108,0.146749 1.871452,-0.480316 0.779417,1.127231 2.697756,0.732043 3.105001,-0.639243 0.265489,0.182067 0.760784,0.03641 0.98511,-0.143826 0.203744,-0.163556 0.341603,-0.399086 0.335271,-0.665671 -0.0016,-0.06528 -0.01474,-0.132379 -0.03702,-0.195828 1.069263,-0.400547 1.64323,-1.961938 1.290787,-3.024015"
         style="opacity:0.997;fill:#5c5757;fill-opacity:1;fill-rule:nonzero;stroke:none;stroke-width:0.0121784"
         id="path36" />
      <path
         d="m 33.043638,26.952614 c -0.713897,0.646063 -1.880951,0.71207 -1.880951,0.71207 -0.161607,0.994608 -1.218569,0.679675 -1.218569,0.679675 -1.400515,0.902784 -1.817502,-1.268378 -1.817502,-1.268378 -1.026029,0.608675 -1.348878,-1.456779 -1.348878,-1.456779 0,0 -1.156947,0.05639 -1.704974,-1.907987 -0.450966,-1.616437 0.993756,-2.522387 1.520106,-2.792869 -0.53317,0.120079 -1.036746,0.351347 -1.367267,0.614278 -0.83422,0.664087 -1.315022,1.894956 -1.12577,2.973231 -0.211539,0.06272 -0.408463,0.195341 -0.540233,0.378138 -0.216167,0.29971 -0.270969,0.75506 -0.151256,1.134904 -0.637416,0.365473 -0.739958,1.375183 -0.549245,2.071178 0.246247,0.898155 1.104579,1.288472 1.847339,0.915205 0.137738,0.501871 0.44171,0.898277 1.023715,1.073037 0.665549,0.199726 1.501108,0.14675 1.871452,-0.480315 0.779417,1.127231 2.697756,0.732043 3.105001,-0.639243 0.265489,0.182066 0.760784,0.03641 0.98511,-0.143827 0.203744,-0.163556 0.341603,-0.399086 0.335271,-0.66567 -0.0016,-0.06528 -0.01474,-0.132379 -0.03702,-0.195829 0.450357,-0.168792 0.811324,-0.544374 1.053674,-1.000819"
         style="opacity:0.997;fill:#3d3d3d;fill-opacity:1;fill-rule:nonzero;stroke:none;stroke-width:0.0121784"
         id="path38" />
      <path
         d="m 27.823374,30.742283 c -0.264149,-0.321631 -0.711461,-0.517825 -1.166324,-0.619028 0.05383,-0.414186 -0.06162,-0.836533 -0.473374,-1.039303 -0.212756,-0.104734 -0.59126,-0.06698 -0.897669,0.07137 -0.304581,-0.62439 -1.025907,-0.975249 -1.772198,-0.734726 -0.469842,0.151377 -0.768334,0.471425 -0.938345,0.864178 -0.317855,0.0013 -0.628039,0.05505 -0.910699,0.240036 -0.47106,0.308478 -0.615861,0.921538 -0.724127,1.440459 -0.159537,0.765046 0.06589,1.59001 0.638269,2.074222 -0.167087,0.218846 -0.231998,0.493712 -0.08915,0.802312 0.207398,0.448652 0.700257,0.459978 1.075839,0.253311 0.0037,0.286557 0.112893,0.564833 0.31676,0.834341 0.412238,0.544861 0.877939,0.683085 1.541539,0.595157 0.570558,-0.07563 1.162428,-0.344405 1.436198,-0.88074 0.08062,-0.157954 0.12154,-0.325285 0.13518,-0.496148 0.948696,0.04555 1.784376,-0.804017 2.041462,-1.765622 0.139808,-0.523183 0.149672,-1.197622 -0.213365,-1.639819"
         style="display:inline;opacity:0.997;fill:#5c5757;fill-opacity:1;fill-rule:nonzero;stroke:none;stroke-width:0.0121784"
         id="path40" />
      <path
         d="m 22.575464,29.284774 c -0.317855,0.0013 -0.628039,0.05505 -0.910699,0.240036 -0.47106,0.308478 -0.807183,0.828008 -0.915327,1.346929 -0.159537,0.764924 0.257085,1.68354 0.829469,2.167752 -0.167087,0.218846 -0.231998,0.493712 -0.08915,0.802312 0.207398,0.448652 0.700257,0.459978 1.075839,0.253189 0.0037,0.286679 0.112893,0.564955 0.31676,0.834463 0.412238,0.544861 0.877939,0.683085 1.541539,0.595157 0.570558,-0.07563 1.162428,-0.344405 1.436198,-0.88074 0.08062,-0.157954 0.12154,-0.325285 0.13518,-0.496148 0.746048,0.0358 1.42073,-0.482629 1.800574,-1.1729 -0.632302,0.08123 -1.322573,-0.844693 -1.322573,-0.844693 0,0 -0.04055,1.055501 -0.527689,1.441068 -0.487135,0.38569 -1.117489,-0.507351 -1.117489,-0.507351 0,0 -0.40481,0.568243 -1.216742,0.324676 -0.811933,-0.243568 -0.568365,-1.339623 -0.568365,-1.339623 0,0 -0.730703,0.121784 -1.319285,-0.89304 -0.588581,-1.014825 0.851756,-1.871087 0.851756,-1.871087"
         style="display:inline;opacity:0.997;fill:#3d3d3d;fill-opacity:1;fill-rule:nonzero;stroke:none;stroke-width:0.0121784"
         id="path42" />
      <path
         d="m 26.79089,35.522176 c -0.100106,0.685156 -0.190713,1.371895 -0.20143,2.068012 -0.01279,0.841648 -0.134815,1.63848 -0.282782,2.465392 -0.121053,0.676144 -0.237844,1.378349 -0.123489,2.060826 h 2.654401 c -0.80012,-2.069229 -0.715359,-4.212016 -0.67517,-6.392799 0.01997,-1.087408 -0.05237,-2.145222 -0.169523,-3.22508 -0.09475,-0.873677 -0.02302,-1.68975 0.05907,-2.532616 0.158076,-0.531952 0.376434,-1.048193 0.70793,-1.546655 0.392387,-0.590164 0.867953,-1.085824 1.394181,-1.555423 0.383619,-0.342212 0.844206,-0.749579 1.0063,-1.252912 0.02217,-0.06856 -0.07051,-0.09511 -0.107901,-0.04543 -0.452548,0.602952 -1.075716,0.941511 -1.616558,1.45008 0.240035,-0.447068 0.418693,-0.919833 0.452427,-1.461528 0.0038,-0.06114 -0.0984,-0.0766 -0.108388,-0.01474 -0.21507,1.321599 -1.361543,2.193571 -1.993236,3.312277 -0.106074,0.187912 -0.211173,0.402617 -0.307261,0.632788 -0.01145,-0.06077 -0.02302,-0.12154 -0.03398,-0.181579 -0.06223,-0.344526 -0.120444,-0.690149 -0.170741,-1.036867 0.0016,-0.06077 0.0034,-0.121053 0.005,-0.182067 0.04201,-1.648223 0.01754,-3.326282 -0.172081,-4.96464 -0.0078,-0.06637 -0.105708,-0.07027 -0.106561,0 -0.01474,1.083024 -0.01802,2.162881 -0.04506,3.243347 -0.274013,-0.815586 -0.817047,-1.499281 -1.068287,-2.326924 -0.01936,-0.06406 -0.111311,-0.03714 -0.09901,0.02728 0.160511,0.84652 0.610259,1.593907 0.822285,2.427396 0.158684,0.623533 0.211173,1.257905 0.258425,1.89386 -0.04518,0.714993 -0.0945,1.426211 -0.02497,2.142909 0.07928,0.816438 0.246369,1.62009 0.227736,2.44408 -0.01315,0.582492 -0.08111,1.159138 -0.162094,1.734445 -0.388375,-0.41029 -0.77991,-0.817657 -1.164747,-1.231356 -0.211416,-0.427218 -0.344039,-0.880498 -0.438056,-1.389919 -0.139565,-0.756522 -0.231877,-1.518401 -0.633155,-2.191135 -0.01133,-0.019 -0.03921,-0.0061 -0.03483,0.01461 0.161364,0.765046 0.158319,1.792171 0.355366,2.709325 -0.381671,-0.467528 -0.757861,-0.946626 -1.194578,-1.344737 -0.0039,-0.0035 -0.01157,-1.22e-4 -0.0095,0.0055 0.292768,0.793544 0.87112,1.547142 1.357646,2.23449 0.499679,0.705859 1.038451,1.389554 1.64262,2.009799"
         style="display:inline;opacity:0.997;fill:#5b5b5b;fill-opacity:1;fill-rule:nonzero;stroke:none;stroke-width:0.0121784"
         id="path44" />
      <path
         d="m 26.79089,35.547751 c -0.100106,0.685156 -0.190713,1.371895 -0.20143,2.068133 -0.01279,0.841648 -0.134815,1.63848 -0.282782,2.465392 -0.121053,0.676144 -0.237844,1.378228 -0.123489,2.060704 h 2.654401 c -0.80012,-2.069107 -0.715359,-4.211893 -0.67517,-6.392798 0.01997,-1.087286 -0.05237,-2.145223 -0.169523,-3.224958 -0.09475,-0.873677 -0.02302,-1.689751 0.05907,-2.532617 0.158076,-0.532073 0.376434,-1.048193 0.70793,-1.546654 0.392387,-0.590165 0.867953,-1.085947 1.394181,-1.555423 0.383619,-0.342213 0.844206,-0.74958 1.0063,-1.252912 0.02217,-0.06856 -0.07051,-0.09511 -0.107901,-0.04542 -0.452548,0.60283 -1.075716,0.941389 -1.616558,1.45008 0.240035,-0.447191 0.418693,-0.919834 0.452427,-1.46165 0.0038,-0.06114 -0.0984,-0.07648 -0.108388,-0.01461 -0.21507,1.321476 -1.361543,2.19357 -1.993236,3.312277 -0.106074,0.187912 -0.211173,0.402617 -0.307261,0.632788 -0.01145,-0.06077 -0.02302,-0.12154 -0.03398,-0.18158 -0.06224,-0.344526 -0.120448,-0.690148 -0.170745,-1.036989 0.0016,-0.06065 0.0034,-0.121053 0.005,-0.181945 0.04202,-1.648222 0.01754,-3.326282 -0.172081,-4.96464 -0.0078,-0.06637 -0.105708,-0.07039 -0.10656,0 -0.01474,1.082902 -0.01802,2.162759 -0.04506,3.243347 -0.274014,-0.815586 -0.817048,-1.49928 -1.068288,-2.327045 -0.01936,-0.06394 -0.111311,-0.03714 -0.09901,0.0274 0.160511,0.846519 0.610258,1.593785 0.822284,2.427274 0.158684,0.623533 0.211173,1.257905 0.258425,1.893982 -0.04518,0.714993 -0.0945,1.42621 -0.02497,2.142908 0.07928,0.816317 0.246369,1.619969 0.227736,2.443958 -0.01315,0.582614 -0.08111,1.159139 -0.162094,1.734445 -0.38837,-0.410289 -0.779905,-0.817534 -1.164742,-1.231234 -0.211416,-0.427218 -0.344039,-0.880497 -0.438056,-1.390041 -0.139565,-0.756399 -0.231877,-1.518279 -0.633155,-2.191013 -0.01133,-0.019 -0.03921,-0.0062 -0.03483,0.01461 0.161364,0.764924 0.158319,1.792171 0.355366,2.709204 -0.381671,-0.467407 -0.757861,-0.946626 -1.194578,-1.344738 -0.0039,-0.0035 -0.01157,-1.21e-4 -0.0095,0.0056 0.292768,0.793543 0.87112,1.547142 1.357646,2.23449 0.499679,0.705859 1.038451,1.389554 1.64262,2.009677"
         style="display:inline;opacity:1;fill:#5b5b5b;fill-opacity:1;fill-rule:nonzero;stroke:none;stroke-width:0.0121784"
         id="path46" />
      <path
         d="m 30.421145,26.487399 c -0.324798,0.243568 -1.20773,0.903271 -1.593298,1.44119 -0.385689,0.53792 -0.862717,1.299068 -0.933717,1.715082 -0.071,0.416135 0.05578,1.816528 0.05578,1.816528 0,0 7.25e-4,-8.63e-4 8.63e-4,-9.67e-4 0.0099,-0.491154 0.05322,-0.975001 0.101203,-1.467617 0.158075,-0.532073 0.376434,-1.048193 0.707929,-1.546654 0.392388,-0.590165 0.867954,-1.085947 1.394182,-1.555423 0.383619,-0.342213 0.844205,-0.74958 1.0063,-1.252913 0.0021,-0.0062 0.0022,-0.01181 0.0023,-0.01741 -0.153803,0.218359 -0.496625,0.684547 -0.741532,0.868197 z m -2.743912,15.629007 h -1.494044 c -0.114355,-0.682477 0.0024,-1.384682 0.123489,-2.060826 0.147967,-0.826912 0.269995,-1.623744 0.282782,-2.465392 0.01072,-0.696117 0.101324,-1.382856 0.20143,-2.068012 -0.604169,-0.620245 -1.142941,-1.303939 -1.64262,-2.009798 -0.486527,-0.687348 -1.064878,-1.440947 -1.357646,-2.23449 -0.0021,-0.0056 0.0056,-0.009 0.0095,-0.0055 0,0 0.907289,1.334751 1.313195,1.760995 L 24.9947,32.617145 c -0.193758,-0.901809 -0.194854,-1.908596 -0.34818,-2.669258 l 0.02764,-0.05468 c 0,0 0.276815,0.927749 0.347815,1.485885 0.07112,0.558257 0.142122,1.654311 0.355243,1.978987 0.213123,0.324797 0.355244,0.507473 0.619028,0.730703 0.263906,0.223351 0.893163,0.882933 0.893163,0.882933 l 0.0207,-0.266098 c 0.08099,-0.575307 0.148942,-1.151953 0.162094,-1.734445 0.01863,-0.82399 -0.148454,-1.627642 -0.227735,-2.44408 -0.06954,-0.716698 -0.02022,-1.427916 0.02497,-2.142908 -0.04725,-0.635957 -0.09974,-1.270329 -0.258427,-1.893862 -0.212026,-0.833488 -0.661774,-1.580876 -0.822285,-2.427395 -0.0066,-0.03434 0.01656,-0.05736 0.0425,-0.06235 0.03982,0.214583 0.121053,0.522331 0.286801,0.842744 0.304459,0.588703 0.832271,1.948663 0.832271,1.948663 l 0.0057,-0.42941 c 0.02704,-1.080466 0.03032,-2.160323 0.04506,-3.243347 0,0 0.04055,5.032595 0.182675,6.006865 0.142,0.974271 0.261714,3.957975 0.293256,6.454544 0.02631,2.087375 -0.42259,4.103993 0.200212,6.535773"
         style="display:inline;opacity:0.997;fill:#332f2f;fill-opacity:1;fill-rule:nonzero;stroke:none;stroke-width:0.0121784"
         id="path48" />
      <path
         d="m 48.475842,27.897534 c 0.817535,-0.773205 0.851147,-2.077997 0.133963,-3.093187 -0.357314,-0.50589 -0.870146,-0.991321 -1.505492,-1.010806 -0.107413,-0.504307 -0.397016,-0.958561 -0.804383,-1.27532 -0.337706,-0.26281 -0.852121,-0.513076 -1.292735,-0.405541 -0.06126,0.01486 -0.119835,0.0358 -0.175856,0.0615 -0.162581,-0.374363 -0.440248,-0.672977 -0.913866,-0.686008 -0.396528,-0.01084 -0.759566,0.298249 -0.898643,0.672612 -0.571166,-0.3086 -1.364953,-0.159293 -1.893129,0.360237 -0.580179,0.570557 -0.907899,1.665028 -0.62536,2.487191 -1.178868,0.187304 -1.988243,1.291518 -1.859031,2.522509 0.06747,0.643871 0.366326,1.310759 0.870268,1.731887 0.01839,0.01534 0.03824,0.02838 0.05736,0.04238 -0.119226,0.38642 -0.07526,0.834585 0.144192,1.191533 0.261713,0.425513 0.627187,0.594549 1.012876,0.595645 0.09779,0.60697 0.565199,1.132711 1.144768,1.386874 0.666158,0.291916 1.319284,0.03568 1.761482,-0.453158 0.375459,0.434038 0.984866,0.71 1.514382,0.621585 0.774179,-0.129213 1.131006,-0.836777 1.195795,-1.563096 0.671882,-0.03032 1.429864,-0.411751 1.840032,-0.802311 0.444755,-0.423443 0.719742,-0.941511 0.590165,-1.562852 -0.05967,-0.286192 -0.156006,-0.568609 -0.296788,-0.821675"
         style="display:inline;opacity:0.997;fill:#5b5b5b;fill-opacity:1;fill-rule:nonzero;stroke:none;stroke-width:0.0121784"
         id="path50" />
      <path
         d="m 50.334263,25.302077 c -0.200943,-0.402861 -0.653735,-0.7223 -1.144767,-0.861986 -0.315542,-1.040521 -1.710089,-1.543975 -2.764128,-1.410987 -0.974515,0.12288 -1.863536,0.982186 -1.946836,1.967174 -0.375826,0.143705 -0.716455,0.445485 -0.888901,0.786358 -0.293255,0.579448 -0.307504,1.372504 -0.01145,1.978744 -0.137129,0.277667 -0.140904,0.603683 0.08318,0.917763 0.09523,0.133232 0.252336,0.24235 0.433307,0.318099 0.04445,0.257086 0.153813,0.511005 0.344039,0.743856 0.529029,0.647281 1.267283,0.678214 1.844173,0.273039 0.447312,0.459247 1.125648,0.666645 1.751495,0.523549 0.63218,-0.144558 1.186053,-0.6267 1.404655,-1.24049 0.103029,-0.289724 0.132866,-0.627796 0.04494,-0.913501 0.179631,-0.09061 0.335149,-0.220428 0.418937,-0.361089 0.126411,-0.211782 0.09061,-0.455228 -0.03179,-0.658607 0.581639,-0.493468 0.857236,-1.272154 0.463143,-2.061922"
         style="display:inline;opacity:0.997;fill:#5c5757;fill-opacity:1;fill-rule:nonzero;stroke:none;stroke-width:0.0121784"
         id="path52" />
      <path
         d="m 44.438708,29.741098 c 0.529029,0.647281 1.267283,0.678214 1.844173,0.273039 0.447312,0.459247 1.125648,0.666645 1.751495,0.523549 0.63218,-0.144558 1.186053,-0.6267 1.404655,-1.24049 0.103029,-0.289724 0.132866,-0.627796 0.04494,-0.913501 0.179631,-0.09061 0.335149,-0.220428 0.418936,-0.361089 0.05882,-0.0984 0.08123,-0.203622 0.07746,-0.3086 -0.650569,0.473374 -1.504518,0.183528 -1.504518,0.183528 0,0 -0.05212,0.792204 -0.935056,1.157555 -0.882933,0.365352 -0.874164,-1.27873 -0.874164,-1.27873 0,0 -1.013486,0.763342 -1.520959,-0.314567 -0.438429,-0.931403 0.426237,-1.649197 0.426237,-1.649197 -0.294839,-0.01766 -0.626335,-0.227248 -0.487136,-1.456413 0.04226,-0.372537 0.356584,-0.796588 0.546323,-1.055378 -0.620489,0.352442 -1.092888,0.990955 -1.152562,1.695474 -0.375826,0.143705 -0.716455,0.445485 -0.888901,0.786358 -0.293255,0.579448 -0.307504,1.372504 -0.01145,1.978744 -0.137129,0.277667 -0.140904,0.603683 0.08318,0.917763 0.09523,0.133232 0.252336,0.24235 0.433307,0.318099 0.04445,0.257086 0.153813,0.511005 0.344039,0.743856"
         style="display:inline;opacity:0.997;fill:#3d3d3d;fill-opacity:1;fill-rule:nonzero;stroke:none;stroke-width:0.0121784"
         id="path54" />
      <path
         d="m 43.354101,25.929264 c -0.08561,-0.498948 -0.410655,-0.999236 -0.796588,-1.216742 -0.151255,-0.08525 -0.318221,-0.135546 -0.489327,-0.156492 -0.159781,-0.955029 -0.902906,-1.735298 -2.005171,-1.638967 -0.400791,0.03507 -0.744343,0.148698 -1.031631,0.32224 -0.795248,0.341969 -1.421339,1.166932 -1.402097,2.099309 -0.533901,0.118983 -0.979629,0.549854 -1.114444,1.124674 -0.136155,0.580422 -0.0027,1.439485 0.46083,1.886554 -0.186938,0.26902 -0.241376,0.640948 -0.127264,0.975853 0.114111,0.334784 0.518677,0.645454 0.875625,0.631206 0.04518,0.87453 0.875626,1.726895 1.757463,1.851357 1.197501,0.169037 2.204166,-0.613424 2.519464,-1.676476 0.301171,0.01376 0.630718,-0.104125 0.837386,-0.289845 0.264149,-0.237722 0.29837,-0.572262 0.197411,-0.879279 0.836534,-0.27511 1.617168,-0.92507 1.714351,-1.805811 0.09889,-0.895842 -0.655805,-1.273493 -1.396008,-1.227581"
         style="display:inline;opacity:0.997;fill:#5c5757;fill-opacity:1;fill-rule:nonzero;stroke:none;stroke-width:0.0121784"
         id="path56" />
      <path
         d="m 41.816946,29.126211 c -1.065609,1.532406 -2.253001,-0.04068 -2.253001,-0.04068 -1.515479,0.279251 -1.73542,-0.971712 -1.73542,-0.971712 -0.997653,-0.03325 -1.27191,-0.901201 -1.343641,-1.482962 -0.07806,0.568243 0.07003,1.313073 0.490789,1.718979 -0.186938,0.26902 -0.241376,0.640948 -0.127264,0.975853 0.114111,0.334784 0.518677,0.645454 0.875625,0.631206 0.04518,0.87453 0.875626,1.726895 1.757463,1.851357 1.197501,0.169037 2.204166,-0.613424 2.519464,-1.676476 0.301171,0.01376 0.630718,-0.104125 0.837386,-0.289845 0.215922,-0.194245 0.276449,-0.453158 0.236869,-0.708904 -0.475809,0.59053 -1.25827,-0.0068 -1.25827,-0.0068"
         style="display:inline;opacity:0.997;fill:#3d3d3d;fill-opacity:1;fill-rule:nonzero;stroke:none;stroke-width:0.0121784"
         id="path58" />
      <path
         d="m 40.575481,29.439926 c 1.222832,0.876479 2.763519,0.879036 4.083291,1.501351 1.349243,0.978534 2.116846,2.685821 2.204165,4.4171 0.120566,2.384162 -0.454741,5.026263 -2.158618,6.758029 h 4.83019 c -0.430993,-0.721448 -0.73667,-1.47395 -0.928723,-2.258847 -0.132136,-0.731677 -0.115086,-1.458848 -0.113503,-2.207697 0.0012,-0.503941 -0.01169,-1.059763 -0.06491,-1.62009 0.0085,-1.638359 -0.508204,-3.323725 -1.111764,-4.785618 -0.425026,-1.029682 -0.827034,-2.195641 -0.123976,-3.207055 0.392022,-0.564225 0.96197,-1.049046 0.934447,-1.792415 -0.0011,-0.03142 -0.04384,-0.02971 -0.0475,0 -0.112284,0.899008 -1.090939,1.315753 -1.452759,2.104303 -0.107413,0.233947 -0.166722,0.477271 -0.1912,0.724005 -0.149186,-0.671516 -0.214584,-1.362761 -0.117766,-2.102841 0.0038,-0.02886 -0.04287,-0.04031 -0.05492,-0.01486 -0.690271,1.453003 -0.05249,3.027059 0.477758,4.430861 0.04482,0.201674 0.0872,0.403835 0.128482,0.605996 -0.704398,-0.862838 -1.808368,-1.466521 -2.798836,-1.807515 -0.551072,-0.189618 -1.116027,-0.335028 -1.679034,-0.484213 -0.614399,-0.162947 -1.280801,-0.315664 -1.341084,-1.084241 -0.04007,-0.51064 0.152839,-1.020062 0.16112,-1.532163 0.0085,-0.524766 -0.102298,-1.037842 -0.275962,-1.530457 -0.0066,-0.01851 -0.03337,-0.0112 -0.02935,0.008 0.148333,0.720595 0.119713,1.385778 -0.02582,2.104059 -0.07405,0.364499 -0.18499,0.748849 -0.142244,1.125161 0.02095,0.18365 0.0749,0.336975 0.152351,0.468136 -1.220639,-0.748239 -2.125249,-1.995549 -2.377707,-3.429797 -0.0038,-0.02204 -0.04202,-0.01717 -0.03921,0.0052 0.179023,1.451054 0.905585,2.747321 2.103086,3.605532"
         style="opacity:0.997;fill:#5b5b5b;fill-opacity:1;fill-rule:nonzero;stroke:none;stroke-width:0.0121784"
         id="path60" />
      <path
         d="m 46.868174,31.99215 0.505159,0.655563 c 0,0 -0.09134,-0.441467 -0.213121,-0.898156 -0.121784,-0.456689 -0.517582,-1.43096 -0.898278,-2.344339 -0.380575,-0.913378 0,-2.449925 0,-2.449925 -0.690271,1.453003 -0.05249,3.027059 0.477758,4.430861 0.04482,0.201674 0.0872,0.403835 0.128482,0.605996 z m 0.388369,7.891593 c 0.04067,-1.603528 0.669811,-2.983704 0.446581,-4.790246 -0.22323,-1.806419 -0.913379,-2.577676 -1.481744,-3.308379 -0.568244,-0.730703 -1.319284,-1.096055 -1.887649,-1.217839 -0.568244,-0.121783 -2.760353,-0.994608 -3.044596,-1.116392 -0.284122,-0.121784 -0.558623,-0.935543 -0.354757,-1.50196 0.124829,-0.346962 0.09682,-1.166933 0.05626,-1.750764 0.03325,0.487866 -0.0095,0.964771 -0.111432,1.467495 -0.07404,0.364499 -0.18499,0.748849 -0.142243,1.125161 0.02095,0.18365 0.0749,0.336975 0.152351,0.468137 -1.220639,-0.74824 -2.125249,-1.99555 -2.377708,-3.429798 -0.0038,-0.02204 -0.04201,-0.01717 -0.03921,0.0052 0.179022,1.451054 0.905585,2.747321 2.103085,3.605531 1.222832,0.876479 2.763519,0.879036 4.083291,1.501351 1.349243,0.978534 2.116846,2.685821 2.204165,4.4171 0.120566,2.384162 -0.454741,5.026262 -2.158618,6.758029 h 2.836224 c -0.152352,-0.591626 -0.304947,-1.403802 -0.284,-2.232663 z M 40.981387,26.071629 c -0.01595,-0.16794 -0.0408,-0.337341 -0.07636,-0.51003 -3.79e-4,-0.002 6.22e-4,-0.0032 7.25e-4,-0.0049 l 0.02862,-0.0032 c 0,0 0.02387,0.213852 0.04701,0.518068"
         style="display:inline;opacity:0.997;fill:#332f2f;fill-opacity:1;fill-rule:nonzero;stroke:none;stroke-width:0.0121784"
         id="path62" />
      <path
         d="M 53.598679,42.370813 H 0.50092668 c -0.201747,0 -0.365352,-0.163556 -0.365352,-0.365352 v 0 c 0,-0.201796 0.163605,-0.365352 0.365352,-0.365352 H 53.598679 c 0.201796,0 0.365352,0.163556 0.365352,0.365352 v 0 c 0,0.201796 -0.163556,0.365352 -0.365352,0.365352"
         style="display:none;opacity:0.997;fill:#f8d530;fill-opacity:1;fill-rule:nonzero;stroke:none;stroke-width:0.0121784"
         id="path96" />
      <path
         d="M 53.598679,43.101515 H 0.50092668 c -0.201747,0 -0.365352,-0.163555 -0.365352,-0.365351 v 0 c 0,-0.201796 0.163605,-0.365351 0.365352,-0.365351 H 53.598679 c 0.201796,0 0.365352,0.163555 0.365352,0.365351 v 0 c 0,0.201796 -0.163556,0.365351 -0.365352,0.365351"
         style="display:none;opacity:0.997;fill:#f8d530;fill-opacity:1;fill-rule:nonzero;stroke:none;stroke-width:0.0121784"
         id="path98"
         inkscape:label="path98" />
    </g>
    <g
       id="g898"
       inkscape:label="road-strip"
       style="display:none">
      <rect
         style="fill:#332f2f;fill-opacity:1;fill-rule:evenodd;stroke:none;stroke-width:0.450645;stroke-linecap:round;stroke-linejoin:round;stroke-opacity:1;paint-order:stroke fill markers"
         id="rect884"
         width="6.3978262"
         height="0.91291642"
         x="-0.93874633"
         y="46.879269"
         transform="matrix(0.99998824,-0.00484895,0.14824279,0.988951,0,0)" />
      <rect
         style="fill:#332f2f;fill-opacity:1;fill-rule:evenodd;stroke:none;stroke-width:0.450645;stroke-linecap:round;stroke-linejoin:round;stroke-opacity:1;paint-order:stroke fill markers"
         id="rect886"
         width="6.3978262"
         height="0.91291642"
         x="9.6370249"
         y="46.931126"
         transform="matrix(0.99998824,-0.00484895,0.14824279,0.988951,0,0)" />
      <rect
         style="fill:#332f2f;fill-opacity:1;fill-rule:evenodd;stroke:none;stroke-width:0.450645;stroke-linecap:round;stroke-linejoin:round;stroke-opacity:1;paint-order:stroke fill markers"
         id="rect888"
         width="6.3978262"
         height="0.91291642"
         x="20.212795"
         y="46.982983"
         transform="matrix(0.99998824,-0.00484895,0.14824279,0.988951,0,0)" />
      <rect
         style="fill:#332f2f;fill-opacity:1;fill-rule:evenodd;stroke:none;stroke-width:0.450645;stroke-linecap:round;stroke-linejoin:round;stroke-opacity:1;paint-order:stroke fill markers"
         id="rect890"
         width="6.3978262"
         height="0.91291642"
         x="30.788567"
         y="47.03484"
         transform="matrix(0.99998824,-0.00484895,0.14824279,0.988951,0,0)" />
      <rect
         style="fill:#332f2f;fill-opacity:1;fill-rule:evenodd;stroke:none;stroke-width:0.450645;stroke-linecap:round;stroke-linejoin:round;stroke-opacity:1;paint-order:stroke fill markers"
         id="rect892"
         width="6.3978262"
         height="0.91291642"
         x="41.364334"
         y="47.086697"
         transform="matrix(0.99998824,-0.00484895,0.14824279,0.988951,0,0)" />
      <rect
         style="fill:#332f2f;fill-opacity:1;fill-rule:evenodd;stroke:none;stroke-width:0.450645;stroke-linecap:round;stroke-linejoin:round;stroke-opacity:1;paint-order:stroke fill markers"
         id="rect894"
         width="6.3978262"
         height="0.91291642"
         x="51.940102"
         y="47.138554"
         transform="matrix(0.99998824,-0.00484895,0.14824279,0.988951,0,0)" />
      <rect
         style="fill:#332f2f;fill-opacity:1;fill-rule:evenodd;stroke:none;stroke-width:0.450645;stroke-linecap:round;stroke-linejoin:round;stroke-opacity:1;paint-order:stroke fill markers"
         id="rect896"
         width="6.3978262"
         height="0.91291642"
         x="62.515869"
         y="47.190411"
         transform="matrix(0.99998824,-0.00484895,0.14824279,0.988951,0,0)" />
    </g>
  </g>
</svg>
