<?xml version="1.0" encoding="UTF-8" standalone="no"?>
<svg
   xmlns:dc="http://purl.org/dc/elements/1.1/"
   xmlns:cc="http://creativecommons.org/ns#"
   xmlns:rdf="http://www.w3.org/1999/02/22-rdf-syntax-ns#"
   xmlns:svg="http://www.w3.org/2000/svg"
   xmlns="http://www.w3.org/2000/svg"
   xmlns:sodipodi="http://sodipodi.sourceforge.net/DTD/sodipodi-0.dtd"
   xmlns:inkscape="http://www.inkscape.org/namespaces/inkscape"
   version="1.1"
   width="512"
   height="260"
   x="0"
   y="0"
   viewBox="0 0 99.488 50.52125"
   xml:space="preserve"
   id="svg44"
   sodipodi:docname="car-suv.svg"
   inkscape:version="1.0.2 (1.0.2+r75+1)"><metadata
     id="metadata50"><rdf:RDF><cc:Work
         rdf:about=""><dc:format>image/svg+xml</dc:format><dc:type
           rdf:resource="http://purl.org/dc/dcmitype/StillImage" /><dc:title></dc:title></cc:Work></rdf:RDF></metadata><defs
     id="defs48" /><sodipodi:namedview
     pagecolor="#ffffff"
     bordercolor="#666666"
     borderopacity="1"
     objecttolerance="10"
     gridtolerance="10"
     guidetolerance="10"
     inkscape:pageopacity="0"
     inkscape:pageshadow="2"
     inkscape:window-width="1318"
     inkscape:window-height="704"
     id="namedview46"
     showgrid="false"
     inkscape:zoom="0.5371094"
     inkscape:cx="38.532136"
     inkscape:cy="314.05106"
     inkscape:window-x="48"
     inkscape:window-y="27"
     inkscape:window-maximized="1"
     inkscape:current-layer="svg44"
     inkscape:document-rotation="0" /><g
     id="g42"
     transform="matrix(-1,0,0,1,99.48939,-24.483375)">
<g
   id="g10">
	<g
   id="g8">
		<path
   d="m 98.587,52.231 -0.68,-0.106 c 0.244,-9.324 -1.22,-11.202 -2.858,-16.912 h 0.901 c 0.428,0 0.773,-0.347 0.773,-0.774 V 33.55 c 0,-0.427 -0.347,-0.773 -0.773,-0.773 H 41.123 c -0.805,0 -1.594,0.216 -2.286,0.625 L 22.22,43.218 c 0,0 -16.635,0.671 -19.213,3.222 -1.303,1.289 -2.481,3.832 -2.911,6.767 -0.43,2.934 0.693,6.062 1.331,6.737 0.639,0.675 1.663,0.998 1.663,0.998 l 0.406,0.771 c 0.262,0.496 0.78,0.801 1.341,0.787 l 2.674,-0.064 v -7.383 c 0,-2.863 2.324,-5.188 5.189,-5.188 h 7.099 c 2.511,0 4.548,2.035 4.548,4.549 v 7.612 l 0.121,-0.003 43.416,-0.667 0.625,0.063 v -6.367 c 0,-2.863 2.324,-5.188 5.188,-5.188 h 7.101 c 2.512,0 4.547,2.035 4.547,4.549 v 8.323 l 5.991,-1.272 c 0.315,-0.067 0.585,-0.276 0.729,-0.566 l 0.438,-0.872 6.059,-0.793 c 0.53,-0.069 0.927,-0.522 0.927,-1.058 V 53.282 C 99.487,52.76 99.105,52.313 98.587,52.231 Z M 46.435,43.697 C 46.302,43.839 46.116,43.92 45.92,43.92 H 32.695 c 0,0 0.812,-0.417 1.237,-1.012 0.426,-0.593 0.19,-1.998 -0.288,-2.472 -0.439,-0.434 -1.322,-0.729 -1.322,-0.729 l 6.651,-4.095 c 0.426,-0.263 0.916,-0.401 1.417,-0.401 h 5.628 c 0.188,0 0.368,0.075 0.5,0.209 0.132,0.134 0.205,0.314 0.202,0.503 l -0.097,7.244 c 0.013,0.196 -0.054,0.387 -0.188,0.53 z m 16.61,-0.588 c -0.444,0.539 -1.103,0.857 -1.803,0.873 l -10.585,0.23 c -0.189,0.004 -0.373,-0.067 -0.508,-0.199 -0.136,-0.133 -0.212,-0.315 -0.212,-0.504 v -7.595 c 0,-0.388 0.314,-0.702 0.702,-0.702 h 11.748 c 0.364,0 0.667,0.277 0.699,0.64 l 0.474,5.323 c 0.117,0.689 -0.071,1.396 -0.515,1.934 z m 31.313,0.006 c -0.062,0.105 -0.175,0.168 -0.297,0.169 L 72.559,43.446 C 71.628,43.453 70.76,42.978 70.261,42.191 L 68.007,36.16 c -0.081,-0.216 -0.051,-0.457 0.08,-0.646 0.132,-0.189 0.348,-0.302 0.577,-0.302 H 91.41 c 0.306,0 0.574,0.196 0.669,0.486 l 2.288,7.074 c 0.058,0.109 0.054,0.239 -0.009,0.343 z"
   fill="#3d3d3d"
   data-original="#000000"
   id="path2" />
		<path
   d="m 15.926,51.364 c -4.235,0 -7.673,3.433 -7.673,7.672 0,0.329 0.027,0.647 0.067,0.966 0.477,3.782 3.696,6.709 7.605,6.709 4.022,0 7.31,-3.086 7.644,-7.02 0.019,-0.219 0.033,-0.434 0.033,-0.655 0.001,-4.239 -3.435,-7.672 -7.676,-7.672 z m -3.843,4.782 1.568,1.563 c -0.123,0.213 -0.221,0.438 -0.279,0.678 h -2.207 c 0.114,-0.838 0.434,-1.6 0.918,-2.241 z m -0.926,3.569 h 2.224 c 0.063,0.234 0.154,0.459 0.279,0.666 l -1.571,1.567 c -0.484,-0.637 -0.814,-1.401 -0.932,-2.233 z m 4.105,4.088 c -0.829,-0.111 -1.586,-0.438 -2.225,-0.92 l 1.561,-1.562 c 0.203,0.12 0.43,0.207 0.664,0.27 z m 0,-7.318 c -0.239,0.062 -0.466,0.159 -0.678,0.282 l -1.561,-1.563 c 0.641,-0.489 1.403,-0.812 2.238,-0.929 z m 1.328,-2.209 c 0.84,0.116 1.602,0.438 2.244,0.931 l -1.563,1.561 c -0.209,-0.122 -0.438,-0.221 -0.682,-0.281 z m 0,9.527 V 61.59 c 0.237,-0.062 0.462,-0.149 0.669,-0.271 l 1.559,1.564 c -0.638,0.481 -1.395,0.807 -2.228,0.92 z m 3.181,-1.851 -1.572,-1.573 c 0.12,-0.205 0.222,-0.426 0.284,-0.664 h 2.204 c -0.116,0.832 -0.429,1.601 -0.916,2.237 z m -1.288,-3.565 c -0.058,-0.239 -0.154,-0.465 -0.275,-0.678 l 1.564,-1.563 c 0.486,0.644 0.806,1.403 0.92,2.241 z"
   fill="#3d3d3d"
   data-original="#000000"
   id="path4" />
		<path
   d="m 76.924,51.364 c -4.236,0 -7.675,3.433 -7.675,7.672 0,0.329 0.026,0.647 0.068,0.966 0.476,3.782 3.696,6.709 7.605,6.709 4.021,0 7.309,-3.086 7.643,-7.02 0.02,-0.219 0.033,-0.434 0.033,-0.655 0.002,-4.239 -3.432,-7.672 -7.674,-7.672 z m -3.843,4.782 1.566,1.563 c -0.123,0.213 -0.22,0.438 -0.278,0.678 h -2.206 c 0.113,-0.838 0.433,-1.6 0.918,-2.241 z m -0.927,3.569 h 2.224 c 0.063,0.234 0.153,0.459 0.278,0.666 l -1.569,1.567 c -0.485,-0.637 -0.815,-1.401 -0.933,-2.233 z m 4.105,4.088 c -0.83,-0.111 -1.587,-0.438 -2.226,-0.92 l 1.562,-1.562 c 0.203,0.12 0.431,0.207 0.664,0.27 z m 0,-7.318 c -0.238,0.062 -0.466,0.159 -0.679,0.282 l -1.561,-1.563 c 0.64,-0.489 1.402,-0.812 2.238,-0.929 z m 1.33,-2.209 c 0.839,0.116 1.601,0.438 2.243,0.931 l -1.563,1.561 C 78.06,56.646 77.831,56.547 77.588,56.487 Z m 0,9.527 V 61.59 c 0.235,-0.062 0.461,-0.149 0.668,-0.271 l 1.559,1.564 c -0.639,0.481 -1.395,0.807 -2.227,0.92 z m 3.18,-1.851 -1.573,-1.573 c 0.12,-0.205 0.223,-0.426 0.285,-0.664 h 2.204 c -0.116,0.832 -0.43,1.601 -0.916,2.237 z m -1.288,-3.565 c -0.059,-0.239 -0.155,-0.465 -0.274,-0.678 l 1.563,-1.563 c 0.484,0.644 0.806,1.403 0.92,2.241 z"
   fill="#3d3d3d"
   data-original="#000000"
   id="path6" />
	</g>
</g>
<g
   id="g12">
</g>
<g
   id="g14">
</g>
<g
   id="g16">
</g>
<g
   id="g18">
</g>
<g
   id="g20">
</g>
<g
   id="g22">
</g>
<g
   id="g24">
</g>
<g
   id="g26">
</g>
<g
   id="g28">
</g>
<g
   id="g30">
</g>
<g
   id="g32">
</g>
<g
   id="g34">
</g>
<g
   id="g36">
</g>
<g
   id="g38">
</g>
<g
   id="g40">
</g>
</g></svg>
