<?xml version="1.0" encoding="UTF-8" standalone="no"?>
<svg
   xmlns:dc="http://purl.org/dc/elements/1.1/"
   xmlns:cc="http://creativecommons.org/ns#"
   xmlns:rdf="http://www.w3.org/1999/02/22-rdf-syntax-ns#"
   xmlns:svg="http://www.w3.org/2000/svg"
   xmlns="http://www.w3.org/2000/svg"
   xmlns:sodipodi="http://sodipodi.sourceforge.net/DTD/sodipodi-0.dtd"
   xmlns:inkscape="http://www.inkscape.org/namespaces/inkscape"
   width="380"
   height="200"
   viewBox="0 0 100.54167 52.916666"
   version="1.1"
   id="svg839"
   inkscape:version="1.0.2 (1.0.2+r75+1)"
   sodipodi:docname="car-running-bg.svg">
  <defs
     id="defs833" />
  <sodipodi:namedview
     id="base"
     pagecolor="#ffffff"
     bordercolor="#666666"
     borderopacity="1.0"
     inkscape:pageopacity="0.0"
     inkscape:pageshadow="2"
     inkscape:zoom="1"
     inkscape:cx="121.81904"
     inkscape:cy="75.060312"
     inkscape:document-units="mm"
     inkscape:current-layer="g898"
     inkscape:document-rotation="0"
     showgrid="false"
     units="px"
     inkscape:window-width="1318"
     inkscape:window-height="704"
     inkscape:window-x="48"
     inkscape:window-y="27"
     inkscape:window-maximized="1" />
  <metadata
     id="metadata836">
    <rdf:RDF>
      <cc:Work
         rdf:about="">
        <dc:format>image/svg+xml</dc:format>
        <dc:type
           rdf:resource="http://purl.org/dc/dcmitype/StillImage" />
        <dc:title></dc:title>
      </cc:Work>
    </rdf:RDF>
  </metadata>
  <g
     inkscape:label="Layer 1"
     inkscape:groupmode="layer"
     id="layer1">
    <rect
       style="display:none;opacity:0.999;fill:#faf3e2;fill-opacity:1;fill-rule:evenodd;stroke:none;stroke-width:0.706676;stroke-linecap:round;stroke-linejoin:round;paint-order:stroke fill markers"
       id="rect1402"
       width="100.53931"
       height="41.537891"
       x="0.001679123"
       y="0.0015557291" />
    <rect
       style="display:none;opacity:0.999;fill:#f8d530;fill-opacity:1;fill-rule:evenodd;stroke:none;stroke-width:0.36984;stroke-linecap:round;stroke-linejoin:round;paint-order:stroke fill markers"
       id="rect1404"
       width="100.53931"
       height="11.377083"
       x="0.001679123"
       y="41.539448" />
    <g
       id="g50"
       transform="matrix(0.01909416,0,0,0.01909416,40.464783,30.700329)">
      <g
         id="g6"
         style="display:inline"
         transform="translate(106.02634,84.821076)">
        <g
           id="g4">
          <path
             d="M 445.437,31.625 V 0 H 213.914 v 31.786 h -64.195 v 191.136 c 37.569,20.426 63.126,60.255 63.126,105.942 0,27.146 -17.807,71.454 -54.441,135.455 -2.912,5.088 -5.817,10.072 -8.685,14.927 v 28.848 h 165.23 v -96.819 h 31.57 v 96.819 H 508.577 V 31.839 Z m -162.06,345.704 h -31.572 v -31.57 h 31.572 z m 0,-63.143 h -31.572 v -31.57 h 31.572 z m 0,-61.692 h -31.572 v -31.57 h 31.572 z m 63.143,124.835 h -31.572 v -31.57 h 31.572 z m 0,-63.143 h -31.572 v -31.57 h 31.572 z m 0,-61.692 h -31.572 v -31.57 h 31.572 z m 31.571,-73.666 h -31.57 v -36.834 h -31.574 v 36.834 h -31.57 V 73.59 h 31.57 v 36.834 h 31.574 V 73.59 h 31.57 z m 31.573,198.501 h -31.572 v -31.57 h 31.572 z m 0,-63.143 h -31.572 v -31.57 h 31.572 z m 0,-61.692 h -31.572 v -31.57 h 31.572 z"
             fill="#ffffff"
             data-original="#000000"
             id="path2"
             style="fill:#3d3d3d;fill-opacity:1" />
        </g>
      </g>
      <g
         id="g12"
         style="display:inline;opacity:1"
         transform="translate(106.02634,84.821076)">
        <g
           id="g10">
          <path
             d="m 92.35,239.937 c -49.034,0 -88.927,39.893 -88.927,88.926 0,11.919 6.518,43.304 50.175,119.604 C 67.92,473.5 82.365,496.52 92.35,512 c 9.984,-15.48 24.43,-38.5 38.752,-63.533 43.656,-76.3 50.175,-107.686 50.175,-119.604 -10e-4,-49.034 -39.893,-88.926 -88.927,-88.926 z m 0,147.545 c -32.323,0 -58.62,-26.297 -58.62,-58.62 0,-32.323 26.296,-58.62 58.62,-58.62 32.323,0 58.62,26.297 58.62,58.62 0,32.323 -26.297,58.62 -58.62,58.62 z"
             fill="#ffffff"
             data-original="#000000"
             id="path8"
             style="fill:#3d3d3d;fill-opacity:1" />
        </g>
      </g>
      <g
         id="g18">
        <g
           id="g16"
           style="fill:#3d3d3d;fill-opacity:1"
           transform="translate(106.02634,84.821076)">
          <path
             d="m 92.35,301.813 c -14.915,0 -27.05,12.134 -27.05,27.05 0,14.916 12.134,27.05 27.05,27.05 14.916,0 27.05,-12.134 27.05,-27.05 0,-14.915 -12.136,-27.05 -27.05,-27.05 z"
             fill="#ffffff"
             data-original="#000000"
             id="path14"
             style="fill:#3d3d3d;fill-opacity:1" />
        </g>
      </g>
      <g
         id="g20" />
      <g
         id="g22" />
      <g
         id="g24" />
      <g
         id="g26" />
      <g
         id="g28" />
      <g
         id="g30" />
      <g
         id="g32" />
      <g
         id="g34" />
      <g
         id="g36" />
      <g
         id="g38" />
      <g
         id="g40" />
      <g
         id="g42" />
      <g
         id="g44" />
      <g
         id="g46" />
      <g
         id="g48" />
    </g>
    <path
       d="M 14.218441,29.068635 C 13.758019,28.65145 13.198262,28.478314 12.62984,28.496764 12.5703,28.238738 12.437135,27.992825 12.279002,27.849042 12.137549,27.720448 11.952299,27.633787 11.76006,27.599589 11.75806,26.264354 10.751623,24.945335 9.555885,24.456398 8.3697458,23.971282 7.1235958,24.194923 6.1976261,24.929866 c -0.6577393,-0.38457 -1.6839286,-0.04268 -2.1810466,0.453992 -0.4559867,0.455577 -0.677625,1.215214 -0.516044,1.856972 -0.2095894,-0.04687 -0.4328307,0.03522 -0.5726811,0.234078 -0.077753,0.110609 -0.1173931,0.258958 -0.1179333,0.408798 -1.1783123,-0.196525 -2.29906474,1.131627 -2.57756357,2.15777 -0.25694583,0.946656 0.15877589,2.241821 1.14802737,2.544576 0.1481807,0.601689 0.6157412,1.16918 1.1464893,1.406985 0.4385801,0.196432 1.191004,0.116946 1.6505594,-0.219261 0.1421056,0.254951 0.4171383,0.467037 0.7200237,0.425198 0.1177194,-0.01621 0.2710722,-0.09365 0.3693907,-0.200718 0.2644469,0.196991 0.5913926,0.329032 0.9015181,0.429951 0.6304833,0.205005 1.4951378,0.279924 2.1715607,0.03914 0.064296,0.0533 0.1325072,0.09999 0.2037007,0.138378 0.3476692,0.187486 0.7445397,0.01221 0.990266,-0.285795 0.2543925,0.192518 0.5692615,0.292038 0.9243855,0.231469 0.595446,-0.101384 0.963989,-0.518103 1.178312,-1.022695 1.247362,0.210781 2.627697,-0.615295 3.118217,-1.87682 0.354193,-0.91106 0.204912,-1.911484 -0.536367,-2.583247"
       style="display:inline;opacity:0.997;fill:#5c5757;fill-opacity:1;fill-rule:nonzero;stroke:none;stroke-width:0.00931842"
       id="path16" />
    <path
       d="m 14.332499,32.389154 c -1.004338,0.504405 -1.87943,-0.238272 -1.87943,-0.238272 -1.04832,0.930909 -2.073344,-0.115641 -2.073344,-0.115641 -0.9085439,0.46592 -1.4909441,-0.627035 -1.4909441,-0.627035 -1.9568647,1.190146 -2.5392183,-0.568982 -2.5392183,-0.568982 0,0 -1.0250243,0.939761 -1.7239044,-0.317478 -0.6988801,-1.257239 0.6755842,-2.060112 0.6755842,-2.060112 0,0 -0.9085443,0.102502 -1.1415046,-1.644698 -0.1791185,-1.343527 0.7982517,-1.873931 1.2596991,-2.047439 -0.5266015,0.03252 -1.0778037,0.289615 -1.4028574,0.614361 -0.4559867,0.455577 -0.677625,1.215214 -0.516044,1.856972 -0.2095894,-0.04687 -0.4328307,0.03522 -0.5726811,0.234078 -0.077753,0.110609 -0.1173931,0.258958 -0.1179333,0.408798 -1.1783123,-0.196525 -2.29906474,1.131627 -2.57756357,2.15777 -0.25694583,0.946656 0.15877589,2.241821 1.14802737,2.544576 0.1481807,0.601689 0.6157412,1.16918 1.1464893,1.406985 0.4385801,0.196432 1.191004,0.116946 1.6505594,-0.219261 0.1421056,0.254951 0.4171383,0.467037 0.7200237,0.425198 0.1177194,-0.01621 0.2710722,-0.09365 0.3693907,-0.200718 0.2644469,0.196991 0.5913926,0.329032 0.9015181,0.429951 0.6304833,0.205005 1.4951378,0.279924 2.1715607,0.03914 0.064296,0.0533 0.1325072,0.09999 0.2037007,0.138378 0.3476692,0.187486 0.7445397,0.01221 0.990266,-0.285795 0.2543925,0.192518 0.5692615,0.292038 0.9244795,0.231469 0.595352,-0.101384 0.963895,-0.518103 1.178218,-1.022695 0.983092,0.166147 2.048372,-0.312074 2.695908,-1.139548"
       style="display:inline;opacity:0.997;fill:#3d3d3d;fill-opacity:1;fill-rule:nonzero;stroke:none;stroke-width:0.00931842"
       id="path18" />
    <path
       d="m 4.4314627,31.467937 c 0.1873558,-0.04035 0.3958177,-0.134465 0.5920168,-0.117971 0.1935339,0.01631 0.3236653,0.107068 0.4531073,0.213298 0.4558655,0.59237 1.0216695,1.082146 1.2632212,1.826593 0.3152042,0.971164 0.00182,2.175661 -0.1505854,3.153068 -0.1639479,1.051489 -0.3959575,2.086111 -0.6130857,3.127349 -0.09173,0.439643 -0.1707876,0.88208 -0.2278255,1.327686 -0.040116,0.313658 -0.1428698,0.776223 -0.074045,1.124452 H 8.095691 c 0.072499,-0.40563 -0.098403,-0.85515 -0.1351164,-1.263948 -0.043515,-0.485489 -0.051159,-0.973215 -0.045657,-1.46038 0.011462,-1.018129 0.074266,-2.033835 0.03597,-3.052337 -0.0065,-0.172856 -0.015747,-0.345619 -0.026092,-0.518196 0.013979,-0.159904 0.031218,-0.320646 0.053393,-0.483718 4.752e-4,-0.0029 8.417e-4,-0.0058 0.0013,-0.0087 0.081256,-0.581841 0.3276343,-1.128458 0.6890955,-1.591583 0.3844772,-0.492477 0.8236541,-0.988216 1.0654666,-1.535579 0.1354906,-0.199691 0.258959,-0.409169 0.3975233,-0.607558 0.33714,-0.482506 0.778739,-0.63011 1.331879,-0.743328 0.59526,-0.121699 1.247176,-0.280857 1.409874,-0.940321 0.01044,-0.04203 -0.05042,-0.07101 -0.07184,-0.03028 -0.443276,0.842384 -1.550303,0.542704 -2.279281,0.871084 -0.107628,0.04846 -0.202303,0.10884 -0.288871,0.177609 0.241253,-0.667477 0.413271,-1.362164 0.527142,-2.068406 0.01053,-0.06505 -0.08415,-0.09467 -0.101105,-0.02786 -0.423707,1.67911 -1.3288961,3.23519 -2.4849369,4.519359 C 8.0154633,33.534946 7.8743825,33.708176 7.7478382,33.884387 7.7295738,33.735945 7.712243,33.587503 7.6921116,33.439246 7.6229696,32.931114 7.52699,32.423075 7.4811433,31.912334 c -0.021713,-0.242093 -0.010344,-0.472816 0.012673,-0.702515 0.037553,-0.127476 0.08955,-0.249547 0.1626061,-0.362486 0.2933433,-0.453713 0.7536723,-0.785634 1.0497177,-1.24615 0.317851,-0.494155 0.508785,-1.008438 0.6381245,-1.580214 0.011837,-0.05228 -0.059453,-0.06952 -0.078647,-0.02172 -0.168384,0.418768 -0.3995731,0.824585 -0.6738138,1.193687 0.00222,-0.01929 0.00444,-0.03849 0.00627,-0.05647 0.069798,-0.692357 -0.1077206,-1.325915 0.1334392,-2.002991 0.016305,-0.04556 -0.047149,-0.0628 -0.071841,-0.03028 -0.2998659,0.395474 -0.3442214,0.93622 -0.3647216,1.418634 -0.012763,0.301357 -0.00214,0.605789 -0.075292,0.901555 -0.034662,0.140429 -0.1069754,0.266414 -0.1706206,0.39361 -0.2989806,0.287007 -0.6351888,0.530124 -0.845971,0.884597 -0.038485,-0.322976 -0.1288736,-0.642877 -0.1491876,-0.970699 -0.024322,-0.391745 -0.00262,-0.776409 0.080697,-1.161352 0.1429445,-0.660488 0.652102,-1.283331 0.6140828,-1.968419 -0.00251,-0.0451 -0.07287,-0.06029 -0.082934,-0.01128 -0.095421,0.463683 -0.3637906,0.814614 -0.592371,1.217542 -0.1961523,0.346086 -0.3232274,0.718542 -0.3853904,1.111499 -0.019372,0.122723 -0.033416,0.255138 -0.040442,0.392584 -0.012011,-0.01864 -0.022568,-0.03802 -0.035344,-0.0561 -0.4061523,-0.574853 -1.143508,-0.892144 -1.3726477,-1.59177 -0.018749,-0.05731 -0.1018501,-0.03401 -0.089866,0.02478 0.1275407,0.626289 0.6217796,0.968462 0.998299,1.44575 0.4857962,0.615853 0.5100428,1.420124 0.7379055,2.140437 0.027397,0.438338 0.053301,0.876862 0.071379,1.315199 -0.160364,-0.2773 -0.361446,-0.536165 -0.5840347,-0.794564 -0.6038696,-0.700931 -1.1072498,-1.426741 -1.2649732,-2.359606 -0.00892,-0.05283 -0.099884,-0.04119 -0.094349,0.01276 0.061008,0.593862 0.1933196,1.139548 0.4478332,1.656532 -0.1393006,-0.06755 -0.285963,-0.106971 -0.4382535,-0.09877 -0.2366783,0.01267 -0.4607204,0.109677 -0.6871299,0.18702 C 4.1165943,31.041243 3.8933154,30.907989 3.692504,30.722646 3.4641284,30.511958 3.2626184,30.284682 3.076651,30.035601 3.067741,30.023671 3.043527,30.030001 3.05,30.046881 c 0.1808424,0.465734 0.5275521,0.94004 0.9632896,1.230868 -0.4072047,0.07054 -0.8132449,0.03028 -1.2036023,-0.109118 -0.030323,-0.01081 -0.04972,0.03243 -0.021294,0.04752 0.5180847,0.274333 1.0659043,0.375904 1.6430585,0.251783"
       style="opacity:0.997;fill:#5b5b5b;fill-opacity:1;fill-rule:nonzero;stroke:none;stroke-width:0.00931842"
       id="path20" />
    <path
       d="m 6.8858832,31.27458 c 0.027397,0.438338 0.053301,0.876861 0.071379,1.315199 -0.00457,-0.0079 -0.010064,-0.01556 -0.014631,-0.02348 0.00978,0.06411 0.014631,0.101198 0.014631,0.101198 l 0.2309102,0.353913 c 0,0 0.031123,-0.559104 0,-1.040493 C 7.1571421,31.499433 6.9086201,30.381225 6.7844058,30.05508 6.6601637,29.728936 6.5113301,29.202727 5.9302346,28.781628 5.6130452,28.551649 5.3415351,28.100919 5.1602269,27.731164 c 0.1410528,0.598894 0.6200744,0.936872 0.9877508,1.402979 0.4857961,0.615853 0.5100427,1.420124 0.7379055,2.140437"
       style="opacity:0.997;fill:#7e7774;fill-opacity:1;fill-rule:nonzero;stroke:none;stroke-width:0.00931842"
       id="path22" />
    <path
       d="M 7.1261118,33.53392 C 6.9552121,33.083561 5.9768266,31.685801 5.7594094,31.499433 5.5419552,31.313065 5.2795863,31.113092 4.5169308,31.390687 c -0.545527,0.198668 -1.1840149,0.03923 -1.5033939,-0.06765 0.4509642,0.191493 0.9236497,0.251224 1.4179258,0.144901 0.1873558,-0.04035 0.3958177,-0.134464 0.5920168,-0.117971 0.1935339,0.01631 0.3236653,0.107068 0.4531073,0.213298 0.4558655,0.592371 1.0216695,1.082146 1.2632212,1.826593 0.3152042,0.971164 0.00182,2.175661 -0.1505854,3.153068 -0.1639479,1.051489 -0.3959575,2.086111 -0.6130857,3.127349 -0.09173,0.439643 -0.1707876,0.88208 -0.2278255,1.327686 -0.040116,0.313658 -0.1428698,0.776223 -0.074045,1.124452 H 7.2831265 C 7.0071154,39.637469 7.1415801,37.121501 7.2347646,35.910109 7.3279483,34.698716 7.2969184,33.984367 7.126112,33.533916"
       style="opacity:0.997;fill:#332f2f;fill-opacity:1;fill-rule:nonzero;stroke:none;stroke-width:0.00931842"
       id="path24" />
    <path
       d="m 10.671019,29.358064 c -0.04249,0.02712 -0.0971,0.08293 -0.0971,0.08293 l 0.124494,-0.63887 c -0.01733,0.0022 -0.03308,0.01323 -0.03905,0.0368 -0.423708,1.679083 -1.3288977,3.235163 -2.4849392,4.519331 -0.1589718,0.176678 -0.3000526,0.349907 -0.4265962,0.526118 l 0.07669,0.456602 c 0,0 1.4758483,-1.754376 1.8019928,-2.437787 0.3257711,-0.68248 0.7444476,-1.84523 0.9930626,-2.304348 0.01789,-0.08005 0.03513,-0.16037 0.05143,-0.240787"
       style="opacity:0.997;fill:#7e7774;fill-opacity:1;fill-rule:nonzero;stroke:none;stroke-width:0.00931842"
       id="path26" />
    <path
       d="m 12.859631,29.877286 c -0.08461,0.16419 -0.214696,0.383732 -0.383265,0.499 -0.279552,0.191307 -0.892983,0.156363 -1.327873,0.435915 -0.434889,0.279552 -0.845178,0.04305 -1.1505427,0.988309 -9.33e-5,1.87e-4 -9.33e-5,3.73e-4 -1.867e-4,5.6e-4 0.043706,-0.06756 0.087873,-0.134743 0.1338124,-0.200624 0.33714,-0.482508 0.778739,-0.630111 1.331879,-0.74333 0.59526,-0.121698 1.247175,-0.280856 1.409875,-0.94032 0.004,-0.01631 -0.0028,-0.03047 -0.0137,-0.03951"
       style="opacity:0.997;fill:#7e7774;fill-opacity:1;fill-rule:nonzero;stroke:none;stroke-width:0.00931842"
       id="path28" />
    <path
       d="m 6.9901562,28.296232 c 0.1397762,-0.477568 0.3494402,-0.722176 0.5578929,-1.083265 0.1577604,-0.273308 0.1441559,-0.489774 0.1638174,-0.652194 -0.019665,-0.0042 -0.040908,0.0037 -0.046126,0.02908 -0.09542,0.463684 -0.3637906,0.814614 -0.5923709,1.217542 -0.1961524,0.346086 -0.3232274,0.718542 -0.3853905,1.111499 -0.019037,0.120673 -0.032801,0.250945 -0.039939,0.385783 l 0.1557479,0.214602 c 0,0 0.046592,-0.745472 0.1863681,-1.22304"
       style="opacity:0.997;fill:#7e7774;fill-opacity:1;fill-rule:nonzero;stroke:none;stroke-width:0.00931842"
       id="path30" />
    <path
       d="m 9.3442641,28.020966 c 0.00597,-0.02647 -0.00932,-0.0438 -0.028326,-0.04837 -0.052459,0.26371 -0.1580398,0.694687 -0.4155075,1.0691 -0.3843838,0.559104 -1.0017281,1.176448 -1.2463362,1.479296 -0.2446082,0.302849 -0.1765838,0.887205 -0.1765838,0.887205 l 3.698e-4,-2.8e-4 c 0.0041,-0.06625 0.00932,-0.132228 0.015933,-0.198109 0.037553,-0.127475 0.08955,-0.249546 0.1626061,-0.362485 0.2933437,-0.453714 0.7536727,-0.785635 1.0497182,-1.24615 0.3178502,-0.494155 0.508785,-1.008438 0.6381236,-1.580215"
       style="opacity:0.997;fill:#7e7774;fill-opacity:1;fill-rule:nonzero;stroke:none;stroke-width:0.00931842"
       id="path32" />
    <path
       d="m 8.4578042,28.634024 c 0.034945,-0.605137 -0.029076,-1.068355 0.1662408,-1.480134 -0.2673451,0.390347 -0.3094641,0.905748 -0.3291256,1.36794 -0.012763,0.301358 -0.00214,0.60579 -0.075292,0.901556 -0.030377,0.123003 -0.089457,0.234824 -0.1463925,0.346086 L 8.4228617,29.23972 c 0,0 0,0 0.034945,-0.605696"
       style="opacity:0.997;fill:#7e7774;fill-opacity:1;fill-rule:nonzero;stroke:none;stroke-width:0.00931842"
       id="path34" />
    <path
       d="m 25.502188,28.97163 c -0.252249,-0.760196 -0.955136,-1.243355 -1.672932,-1.242982 -0.07194,-0.226157 -0.284119,-0.452315 -0.447749,-0.548108 -0.05609,-0.0328 -0.119183,-0.05852 -0.185437,-0.07706 -0.02442,-0.364629 -0.187207,-0.710341 -0.57625,-0.828499 -0.172483,-0.05246 -0.384757,-0.037 -0.595073,0.02395 -0.560875,-0.791039 -2.046508,-0.435263 -2.68603,0.07362 -0.638311,0.508132 -1.006201,1.449943 -0.861393,2.274994 -0.161861,0.04799 -0.312539,0.149467 -0.413364,0.289337 -0.165402,0.229325 -0.207335,0.577741 -0.115735,0.868382 -0.487725,0.279645 -0.566186,1.052234 -0.42026,1.58478 0.188418,0.687232 0.845179,0.985887 1.413508,0.700278 0.105392,0.384012 0.337979,0.687419 0.783305,0.821044 0.509251,0.152822 1.148587,0.112287 1.431959,-0.367518 0.596378,0.862511 2.064213,0.56013 2.37582,-0.489122 0.203142,0.13931 0.582121,0.02786 0.753766,-0.11005 0.155897,-0.125147 0.261381,-0.305365 0.256536,-0.509345 -0.0012,-0.04995 -0.01128,-0.101291 -0.02833,-0.149839 0.818156,-0.306482 1.257332,-1.501195 0.987657,-2.313853"
       style="opacity:0.997;fill:#5c5757;fill-opacity:1;fill-rule:nonzero;stroke:none;stroke-width:0.00931842"
       id="path36" />
    <path
       d="m 25.320759,30.519696 c -0.546245,0.494341 -1.439227,0.544847 -1.439227,0.544847 -0.123655,0.761034 -0.932399,0.52006 -0.932399,0.52006 -1.071617,0.690773 -1.390679,-0.970511 -1.390679,-0.970511 -0.785075,0.465733 -1.032106,-1.114668 -1.032106,-1.114668 0,0 -0.885249,0.04315 -1.304577,-1.459914 -0.345061,-1.236832 0.760382,-1.930028 1.163123,-2.136989 -0.40796,0.09188 -0.793275,0.268836 -1.046177,0.47002 -0.638311,0.508132 -1.006201,1.449943 -0.861393,2.274995 -0.161861,0.04799 -0.312539,0.149467 -0.413364,0.289336 -0.165402,0.229326 -0.207335,0.577741 -0.115735,0.868382 -0.487725,0.279645 -0.566186,1.052234 -0.42026,1.584781 0.188418,0.687232 0.845179,0.985886 1.413508,0.700278 0.105392,0.384011 0.337979,0.687325 0.783305,0.821044 0.509251,0.152822 1.148587,0.112287 1.431959,-0.367518 0.596378,0.862512 2.064213,0.56013 2.37582,-0.489122 0.203142,0.139309 0.582121,0.02786 0.753766,-0.110051 0.155897,-0.125146 0.261381,-0.305364 0.256536,-0.509343 -0.0012,-0.04995 -0.01128,-0.101291 -0.02833,-0.149841 0.344595,-0.129152 0.620792,-0.416532 0.806228,-0.765786"
       style="opacity:0.997;fill:#3d3d3d;fill-opacity:1;fill-rule:nonzero;stroke:none;stroke-width:0.00931842"
       id="path38" />
    <path
       d="m 21.326426,33.419397 c -0.202116,-0.246099 -0.544381,-0.396219 -0.892424,-0.473655 0.04119,-0.316919 -0.04715,-0.640081 -0.362206,-0.795233 -0.162792,-0.08014 -0.452408,-0.05125 -0.68686,0.05461 -0.233053,-0.477758 -0.784982,-0.746221 -1.356014,-0.562183 -0.359504,0.115828 -0.587897,0.360716 -0.717983,0.661234 -0.24321,9.95e-4 -0.48055,0.04212 -0.69683,0.183666 -0.360436,0.236035 -0.471231,0.705123 -0.554072,1.10218 -0.122071,0.585382 0.05042,1.216611 0.488377,1.587111 -0.127848,0.167452 -0.177515,0.377768 -0.06821,0.613896 0.158693,0.34329 0.535808,0.351956 0.823188,0.193823 0.0028,0.219262 0.08638,0.432187 0.242372,0.638404 0.315428,0.416905 0.671763,0.522669 1.179523,0.45539 0.436568,-0.05787 0.889443,-0.263525 1.09892,-0.673907 0.06169,-0.120859 0.093,-0.248894 0.103434,-0.379632 0.725904,0.03485 1.365332,-0.615201 1.562044,-1.350982 0.106975,-0.400318 0.114523,-0.916371 -0.163258,-1.254722"
       style="display:inline;opacity:0.997;fill:#5c5757;fill-opacity:1;fill-rule:nonzero;stroke:none;stroke-width:0.00931842"
       id="path40" />
    <path
       d="m 17.310939,32.30417 c -0.24321,9.95e-4 -0.48055,0.04212 -0.69683,0.183666 -0.360436,0.236035 -0.617623,0.633558 -0.700371,1.030615 -0.122071,0.585289 0.196711,1.288176 0.634676,1.658676 -0.127848,0.167452 -0.177515,0.377768 -0.06821,0.613896 0.158693,0.34329 0.535808,0.351956 0.823188,0.19373 0.0028,0.219355 0.08638,0.43228 0.242372,0.638497 0.315428,0.416905 0.671763,0.522669 1.179523,0.45539 0.436568,-0.05787 0.889443,-0.263525 1.09892,-0.673907 0.06169,-0.120859 0.093,-0.248894 0.103434,-0.379632 0.570846,0.02739 1.087085,-0.369288 1.377726,-0.897455 -0.483811,0.06215 -1.011979,-0.646325 -1.011979,-0.646325 0,0 -0.03103,0.807627 -0.403766,1.102647 -0.372736,0.295114 -0.855057,-0.388204 -0.855057,-0.388204 0,0 -0.309744,0.434796 -0.931001,0.248428 -0.621258,-0.186368 -0.43489,-1.025025 -0.43489,-1.025025 0,0 -0.559104,0.09318 -1.009463,-0.683317 -0.450358,-0.776503 0.651729,-1.43168 0.651729,-1.43168"
       style="display:inline;opacity:0.997;fill:#3d3d3d;fill-opacity:1;fill-rule:nonzero;stroke:none;stroke-width:0.00931842"
       id="path42" />
    <path
       d="m 20.536411,37.076776 c -0.0766,0.524253 -0.145926,1.049718 -0.154126,1.582358 -0.0098,0.643995 -0.103155,1.253698 -0.216373,1.886418 -0.09262,0.517358 -0.181989,1.054656 -0.09449,1.57686 h 2.03104 c -0.61222,-1.58329 -0.547364,-3.222863 -0.516613,-4.891509 0.01528,-0.832041 -0.04007,-1.641437 -0.129712,-2.4677 -0.0725,-0.668502 -0.01761,-1.292928 0.0452,-1.937855 0.120953,-0.407028 0.288032,-0.802034 0.541679,-1.183437 0.300239,-0.451569 0.664122,-0.830828 1.06677,-1.190146 0.29353,-0.261847 0.645952,-0.573547 0.76998,-0.958677 0.01696,-0.05246 -0.05395,-0.07278 -0.08256,-0.03476 -0.346272,0.461355 -0.823094,0.720406 -1.236925,1.109543 0.183665,-0.342079 0.320367,-0.703819 0.346179,-1.118302 0.0029,-0.04678 -0.07529,-0.05861 -0.08293,-0.01128 -0.164563,1.011234 -1.041797,1.678432 -1.525143,2.53442 -0.08116,0.143782 -0.161581,0.308066 -0.235103,0.484183 -0.0088,-0.0465 -0.01761,-0.093 -0.026,-0.138936 -0.04762,-0.263618 -0.09216,-0.528074 -0.130644,-0.793369 0.0012,-0.0465 0.0026,-0.09262 0.0038,-0.13931 0.03214,-1.261153 0.01342,-2.545135 -0.131669,-3.79874 -0.006,-0.05078 -0.08088,-0.05377 -0.08154,0 -0.01128,0.828686 -0.01379,1.654948 -0.03448,2.481677 -0.209664,-0.624053 -0.625171,-1.147189 -0.81741,-1.780468 -0.01481,-0.04902 -0.08517,-0.02842 -0.07576,0.02087 0.122816,0.647722 0.466945,1.219593 0.629179,1.857344 0.121418,0.477102 0.16158,0.962498 0.197736,1.449105 -0.03457,0.547083 -0.07231,1.091278 -0.01911,1.639666 0.06066,0.624705 0.188511,1.239627 0.174254,1.870111 -0.01006,0.445699 -0.06206,0.886925 -0.124028,1.327126 -0.297168,-0.313937 -0.596755,-0.625637 -0.891217,-0.942183 -0.161766,-0.32689 -0.263244,-0.673721 -0.335182,-1.063509 -0.10679,-0.57886 -0.177423,-1.161819 -0.484465,-1.676568 -0.0087,-0.01454 -0.03,-0.0047 -0.02665,0.01118 0.123469,0.585382 0.121139,1.371297 0.271912,2.073065 -0.29204,-0.357733 -0.579885,-0.724319 -0.914043,-1.028938 -0.003,-0.0027 -0.0089,-9.3e-5 -0.0073,0.0042 0.224014,0.607187 0.666546,1.18381 1.038816,1.709741 0.382334,0.540094 0.79458,1.06323 1.256865,1.537816"
       style="display:inline;opacity:0.997;fill:#5b5b5b;fill-opacity:1;fill-rule:nonzero;stroke:none;stroke-width:0.00931842"
       id="path44" />
    <path
       d="m 20.536411,37.096345 c -0.0766,0.524253 -0.145926,1.049718 -0.154126,1.582451 -0.0098,0.643995 -0.103155,1.253698 -0.216373,1.886417 -0.09262,0.517358 -0.181989,1.054564 -0.09449,1.576767 h 2.03104 c -0.61222,-1.583196 -0.547364,-3.222769 -0.516613,-4.891508 0.01528,-0.831947 -0.04007,-1.641438 -0.129712,-2.467607 -0.0725,-0.668502 -0.01761,-1.292928 0.0452,-1.937855 0.120953,-0.407121 0.288032,-0.802035 0.541679,-1.183437 0.300239,-0.45157 0.664122,-0.830922 1.06677,-1.190146 0.29353,-0.261847 0.645952,-0.573548 0.76998,-0.958677 0.01696,-0.05246 -0.05395,-0.07277 -0.08256,-0.03475 -0.346272,0.461261 -0.823094,0.720313 -1.236925,1.109542 0.183665,-0.342172 0.320367,-0.703819 0.346179,-1.118394 0.0029,-0.04678 -0.07529,-0.05852 -0.08293,-0.01118 -0.164563,1.011139 -1.041797,1.67843 -1.525143,2.534419 -0.08116,0.143782 -0.161581,0.308066 -0.235103,0.484183 -0.0088,-0.0465 -0.01761,-0.093 -0.026,-0.138937 -0.04762,-0.263617 -0.09216,-0.528073 -0.130647,-0.793462 0.0012,-0.04641 0.0026,-0.09262 0.0038,-0.139217 0.03215,-1.261152 0.01342,-2.545135 -0.131669,-3.79874 -0.006,-0.05078 -0.08088,-0.05386 -0.08154,0 -0.01128,0.828593 -0.01379,1.654855 -0.03448,2.481677 -0.209664,-0.624053 -0.625171,-1.147188 -0.81741,-1.78056 -0.01481,-0.04892 -0.08517,-0.02842 -0.07576,0.02097 0.122816,0.647722 0.466944,1.2195 0.629178,1.857251 0.121418,0.477103 0.161581,0.962498 0.197736,1.449198 -0.03457,0.547084 -0.07231,1.091278 -0.01911,1.639666 0.06066,0.624613 0.188511,1.239534 0.174254,1.870017 -0.01006,0.445793 -0.06206,0.886926 -0.124027,1.327127 -0.297165,-0.313937 -0.596752,-0.625544 -0.891214,-0.94209 -0.161766,-0.32689 -0.263244,-0.673721 -0.335182,-1.063603 -0.10679,-0.578766 -0.177423,-1.161725 -0.484465,-1.676474 -0.0087,-0.01454 -0.03,-0.0047 -0.02665,0.01118 0.123469,0.585289 0.121139,1.371296 0.271912,2.072973 -0.29204,-0.357641 -0.579885,-0.72432 -0.914043,-1.028939 -0.003,-0.0027 -0.0089,-9.3e-5 -0.0073,0.0043 0.224014,0.607187 0.666546,1.18381 1.038816,1.70974 0.382334,0.540095 0.79458,1.063231 1.256865,1.537723"
       style="display:inline;opacity:1;fill:#5b5b5b;fill-opacity:1;fill-rule:nonzero;stroke:none;stroke-width:0.00931842"
       id="path46" />
    <path
       d="m 23.314134,30.163733 c -0.248522,0.186368 -0.924106,0.691146 -1.219126,1.10274 -0.295114,0.411594 -0.660116,0.993994 -0.714443,1.312311 -0.05433,0.318409 0.04268,1.389933 0.04268,1.389933 0,0 5.55e-4,-6.61e-4 6.6e-4,-7.4e-4 0.0076,-0.375811 0.04072,-0.746031 0.07744,-1.122961 0.120952,-0.40712 0.288032,-0.802034 0.541678,-1.183436 0.300239,-0.451571 0.664123,-0.830923 1.066771,-1.190147 0.29353,-0.261847 0.645952,-0.573548 0.76998,-0.958678 0.0016,-0.0047 0.0017,-0.009 0.0018,-0.01332 -0.117684,0.167079 -0.379997,0.523787 -0.56739,0.664309 z m -2.099529,11.958679 h -1.143182 c -0.0875,-0.522204 0.0018,-1.059502 0.09449,-1.57686 0.113218,-0.63272 0.206589,-1.242423 0.216373,-1.886418 0.0082,-0.53264 0.07753,-1.058105 0.154126,-1.582358 -0.462285,-0.474586 -0.874532,-0.997721 -1.256866,-1.537816 -0.37227,-0.52593 -0.814801,-1.102554 -1.038815,-1.70974 -0.0016,-0.0043 0.0043,-0.0069 0.0073,-0.0042 0,0 0.69422,1.021297 1.004803,1.347442 l -0.09076,-0.318488 c -0.148256,-0.690028 -0.149095,-1.46038 -0.266413,-2.042408 l 0.02115,-0.04184 c 0,0 0.211807,0.709876 0.266133,1.136939 0.05442,0.427155 0.108746,1.265811 0.271818,1.51424 0.163073,0.248522 0.271818,0.388298 0.473655,0.559104 0.20193,0.170899 0.683412,0.675585 0.683412,0.675585 l 0.01584,-0.203608 c 0.06197,-0.440201 0.113964,-0.881427 0.124027,-1.327126 0.01425,-0.630484 -0.113591,-1.245406 -0.174253,-1.870111 -0.05321,-0.548388 -0.01547,-1.092583 0.01911,-1.639666 -0.03615,-0.486608 -0.07632,-0.972004 -0.197738,-1.449106 -0.162234,-0.637751 -0.506362,-1.209621 -0.629179,-1.857343 -0.0051,-0.02628 0.01267,-0.04389 0.03252,-0.04771 0.03047,0.16419 0.09262,0.399666 0.219449,0.644833 0.232959,0.450452 0.63682,1.491038 0.63682,1.491038 l 0.0044,-0.328567 c 0.02069,-0.826729 0.0232,-1.652991 0.03448,-2.481677 0,0 0.03103,3.850736 0.139776,4.596208 0.108652,0.745473 0.200252,3.028481 0.224387,4.938754 0.02013,1.597174 -0.323349,3.140208 0.153194,5.000907"
       style="display:inline;opacity:0.997;fill:#332f2f;fill-opacity:1;fill-rule:nonzero;stroke:none;stroke-width:0.00931842"
       id="path48" />
    <path
       d="m 37.128852,31.242711 c 0.625545,-0.591625 0.651263,-1.589999 0.102503,-2.366781 -0.273402,-0.387086 -0.6658,-0.758518 -1.151941,-0.773427 -0.08219,-0.385876 -0.30378,-0.733452 -0.615481,-0.975823 -0.258399,-0.201092 -0.652008,-0.392585 -0.989148,-0.310304 -0.04687,0.01137 -0.09169,0.02739 -0.134558,0.04706 -0.1244,-0.286448 -0.33686,-0.514935 -0.699253,-0.524906 -0.303407,-0.0083 -0.581189,0.228208 -0.687605,0.514655 -0.437033,-0.236128 -1.044406,-0.121884 -1.448545,0.275639 -0.443929,0.436567 -0.694687,1.274012 -0.4785,1.903097 -0.902022,0.143318 -1.521322,0.988217 -1.422455,1.930121 0.05163,0.492664 0.280298,1.00294 0.665894,1.32517 0.01407,0.01174 0.02926,0.02172 0.04389,0.03243 -0.09123,0.295673 -0.05758,0.638591 0.11033,0.911713 0.200252,0.325585 0.479898,0.454924 0.775012,0.455763 0.07483,0.464429 0.432467,0.866704 0.87593,1.061179 0.509716,0.223362 1.009462,0.0273 1.347814,-0.346738 0.287286,0.332108 0.753579,0.543263 1.158743,0.475612 0.59237,-0.09887 0.8654,-0.640268 0.914974,-1.196018 0.514096,-0.0232 1.094073,-0.315055 1.407917,-0.613895 0.340309,-0.324002 0.550717,-0.720406 0.45157,-1.195831 -0.04566,-0.218982 -0.119369,-0.435076 -0.22709,-0.628712"
       style="display:inline;opacity:0.997;fill:#5b5b5b;fill-opacity:1;fill-rule:nonzero;stroke:none;stroke-width:0.00931842"
       id="path50" />
    <path
       d="m 38.55084,29.256773 c -0.153753,-0.308253 -0.500211,-0.552675 -0.875929,-0.659557 -0.24144,-0.796164 -1.30849,-1.181386 -2.114998,-1.079629 -0.745659,0.09402 -1.425902,0.751528 -1.489639,1.505201 -0.287567,0.109957 -0.548203,0.340867 -0.680151,0.601689 -0.224387,0.44337 -0.23529,1.050184 -0.0088,1.514054 -0.104926,0.21246 -0.107814,0.461914 0.06365,0.702235 0.07287,0.101944 0.193077,0.185436 0.331549,0.243396 0.03401,0.196712 0.117691,0.391001 0.263244,0.569169 0.404792,0.495273 0.969673,0.518941 1.411086,0.208918 0.342265,0.351397 0.8613,0.51009 1.340173,0.400598 0.483718,-0.11061 0.907519,-0.479525 1.074784,-0.949172 0.07883,-0.221685 0.101664,-0.480364 0.03439,-0.698974 0.137446,-0.06933 0.256442,-0.168662 0.320553,-0.27629 0.09672,-0.162047 0.06933,-0.348322 -0.02432,-0.50394 0.445046,-0.377581 0.655922,-0.9734 0.354378,-1.577698"
       style="display:inline;opacity:0.997;fill:#5c5757;fill-opacity:1;fill-rule:nonzero;stroke:none;stroke-width:0.00931842"
       id="path52" />
    <path
       d="m 34.039802,32.653331 c 0.404791,0.495273 0.969673,0.518941 1.411086,0.208918 0.342265,0.351397 0.8613,0.51009 1.340172,0.400598 0.483719,-0.11061 0.90752,-0.479525 1.074785,-0.949172 0.07883,-0.221685 0.101664,-0.480364 0.03439,-0.698974 0.137447,-0.06933 0.256443,-0.168662 0.320553,-0.27629 0.04501,-0.07529 0.06215,-0.155804 0.05927,-0.236128 -0.497788,0.362206 -1.151195,0.140428 -1.151195,0.140428 0,0 -0.03988,0.606162 -0.715467,0.885714 -0.675584,0.279552 -0.668875,-0.978432 -0.668875,-0.978432 0,0 -0.775478,0.584078 -1.163776,-0.240694 -0.335468,-0.712672 0.32614,-1.261899 0.32614,-1.261899 -0.225599,-0.01351 -0.479246,-0.173881 -0.372737,-1.114387 0.03234,-0.285051 0.272844,-0.609517 0.418024,-0.807533 -0.474773,0.269675 -0.836233,0.758239 -0.881893,1.297308 -0.287567,0.109957 -0.548203,0.340867 -0.680151,0.601689 -0.224387,0.44337 -0.23529,1.050184 -0.0088,1.514054 -0.104926,0.21246 -0.107814,0.461914 0.06365,0.702235 0.07287,0.101944 0.193077,0.185436 0.331549,0.243396 0.03401,0.196712 0.117691,0.391001 0.263244,0.569169"
       style="display:inline;opacity:0.997;fill:#3d3d3d;fill-opacity:1;fill-rule:nonzero;stroke:none;stroke-width:0.00931842"
       id="path54" />
    <path
       d="m 33.209905,29.736671 c -0.06551,-0.381775 -0.314217,-0.764575 -0.609517,-0.931002 -0.115734,-0.06523 -0.24349,-0.103714 -0.374413,-0.119741 -0.122258,-0.730749 -0.690867,-1.327779 -1.534275,-1.254071 -0.306669,0.02683 -0.569541,0.113778 -0.789362,0.246565 -0.608491,0.261661 -1.087551,0.892889 -1.072827,1.606306 -0.40852,0.09104 -0.749573,0.420726 -0.852727,0.860555 -0.104181,0.444115 -0.0021,1.101435 0.352608,1.443514 -0.143037,0.205843 -0.184691,0.490427 -0.09738,0.746683 0.08731,0.256163 0.39687,0.493875 0.669992,0.482973 0.03457,0.669155 0.669993,1.321349 1.344739,1.416583 0.916279,0.12934 1.686538,-0.469367 1.927791,-1.282771 0.230444,0.01053 0.4826,-0.07967 0.640734,-0.221778 0.202116,-0.181895 0.228301,-0.437872 0.151051,-0.672788 0.640082,-0.210503 1.237391,-0.707826 1.311751,-1.381733 0.07567,-0.685462 -0.501795,-0.974425 -1.068168,-0.939295"
       style="display:inline;opacity:0.997;fill:#5c5757;fill-opacity:1;fill-rule:nonzero;stroke:none;stroke-width:0.00931842"
       id="path56" />
    <path
       d="m 32.033737,32.182844 c -0.815361,1.172535 -1.723905,-0.03113 -1.723905,-0.03113 -1.159583,0.213671 -1.327873,-0.743515 -1.327873,-0.743515 -0.763363,-0.02544 -0.973213,-0.689562 -1.028099,-1.134702 -0.05973,0.434796 0.05358,1.00471 0.375532,1.315293 -0.143037,0.205843 -0.184691,0.490427 -0.09738,0.746683 0.08731,0.256163 0.39687,0.493875 0.669992,0.482973 0.03457,0.669154 0.669993,1.321349 1.344739,1.416583 0.916279,0.12934 1.686538,-0.469367 1.927791,-1.282771 0.230444,0.01053 0.4826,-0.07967 0.640734,-0.221778 0.165215,-0.148628 0.211527,-0.346738 0.181242,-0.542424 -0.364069,0.451849 -0.962776,-0.0052 -0.962776,-0.0052"
       style="display:inline;opacity:0.997;fill:#3d3d3d;fill-opacity:1;fill-rule:nonzero;stroke:none;stroke-width:0.00931842"
       id="path58" />
    <path
       d="m 31.083818,32.422886 c 0.935661,0.670646 2.114532,0.672603 3.124368,1.148773 1.032386,0.748734 1.619724,2.05508 1.686537,3.379785 0.09225,1.824263 -0.347949,3.845891 -1.651686,5.170968 h 3.695864 c -0.329778,-0.552023 -0.56367,-1.127807 -0.710621,-1.728378 -0.101105,-0.559849 -0.08806,-1.116251 -0.08685,-1.68924 9.18e-4,-0.385595 -0.0089,-0.810887 -0.04967,-1.239626 0.0065,-1.253606 -0.388857,-2.543179 -0.850677,-3.66176 -0.325212,-0.787871 -0.632812,-1.680015 -0.09486,-2.453908 0.299959,-0.431722 0.73606,-0.802687 0.715001,-1.371483 -8.42e-4,-0.02404 -0.03355,-0.02273 -0.03635,0 -0.08592,0.687885 -0.834742,1.006761 -1.111592,1.610127 -0.08219,0.179007 -0.127569,0.365188 -0.146299,0.553979 -0.114151,-0.513816 -0.164191,-1.042729 -0.09011,-1.609008 0.0029,-0.02208 -0.0328,-0.03084 -0.04202,-0.01137 -0.528167,1.111778 -0.04016,2.316182 0.365561,3.390314 0.03429,0.154313 0.06672,0.308998 0.09831,0.463683 -0.538977,-0.660208 -1.383689,-1.122122 -2.141555,-1.383036 -0.421658,-0.145088 -0.853939,-0.25635 -1.284729,-0.3705 -0.470113,-0.124681 -0.980016,-0.241534 -1.026142,-0.829617 -0.03066,-0.390721 0.116946,-0.78051 0.123282,-1.172349 0.0065,-0.40153 -0.07827,-0.794115 -0.211155,-1.171043 -0.0051,-0.01416 -0.02553,-0.0086 -0.02246,0.0061 0.113498,0.55137 0.0916,1.060341 -0.01976,1.60994 -0.05666,0.2789 -0.141546,0.572989 -0.108839,0.860927 0.01603,0.140522 0.05731,0.25784 0.116573,0.358199 -0.933983,-0.572522 -1.626154,-1.526913 -1.819325,-2.624341 -0.0029,-0.01686 -0.03215,-0.01314 -0.03,0.004 0.136981,1.110287 0.692916,2.102138 1.609195,2.758806"
       style="opacity:0.997;fill:#5b5b5b;fill-opacity:1;fill-rule:nonzero;stroke:none;stroke-width:0.00931842"
       id="path60" />
    <path
       d="m 35.89873,34.375744 0.386527,0.50161 c 0,0 -0.06989,-0.337793 -0.163071,-0.687232 -0.09318,-0.34944 -0.396033,-1.094913 -0.687326,-1.793793 -0.2912,-0.69888 0,-1.874583 0,-1.874583 -0.528167,1.111779 -0.04016,2.316182 0.365561,3.390314 0.0343,0.154313 0.06672,0.308999 0.09831,0.463684 z m 0.297164,6.038325 c 0.03112,-1.226954 0.512512,-2.283009 0.341706,-3.665301 -0.170807,-1.382198 -0.69888,-1.972332 -1.13377,-2.531437 -0.434797,-0.559104 -1.009462,-0.838656 -1.444352,-0.93184 -0.434797,-0.09318 -2.11211,-0.761034 -2.329601,-0.854218 -0.217398,-0.09318 -0.427435,-0.715839 -0.271445,-1.149238 0.09551,-0.265482 0.07408,-0.89289 0.04305,-1.339614 0.02544,0.373295 -0.0073,0.738204 -0.08526,1.122868 -0.05665,0.278899 -0.141547,0.572988 -0.108838,0.860927 0.01603,0.140521 0.05731,0.257839 0.116572,0.358199 -0.933983,-0.572522 -1.626154,-1.526913 -1.819325,-2.624341 -0.0029,-0.01686 -0.03214,-0.01314 -0.03,0.004 0.136981,1.110287 0.692917,2.102138 1.609195,2.758805 0.935661,0.670646 2.114532,0.672602 3.124368,1.148772 1.032386,0.748735 1.619724,2.055081 1.686537,3.379785 0.09225,1.824264 -0.347949,3.845891 -1.651686,5.170969 H 36.4132 c -0.116574,-0.45271 -0.233333,-1.074154 -0.217306,-1.708364 z M 31.394401,29.845603 c -0.0122,-0.128501 -0.03122,-0.25812 -0.05843,-0.390255 -2.9e-4,-0.0015 4.76e-4,-0.0024 5.55e-4,-0.0037 l 0.0219,-0.0024 c 0,0 0.01826,0.16363 0.03597,0.396404"
       style="opacity:0.997;fill:#332f2f;fill-opacity:1;fill-rule:nonzero;stroke:none;stroke-width:0.00931842"
       id="path62" />
    <path
       d="M 53.598679,42.370813 H 0.50092668 c -0.201747,0 -0.365352,-0.163556 -0.365352,-0.365352 v 0 c 0,-0.201796 0.163605,-0.365352 0.365352,-0.365352 H 53.598679 c 0.201796,0 0.365352,0.163556 0.365352,0.365352 v 0 c 0,0.201796 -0.163556,0.365352 -0.365352,0.365352"
       style="display:none;opacity:0.997;fill:#f8d530;fill-opacity:1;fill-rule:nonzero;stroke:none;stroke-width:0.0121784"
       id="path96" />
    <path
       d="M 53.598679,43.101515 H 0.50092668 c -0.201747,0 -0.365352,-0.163555 -0.365352,-0.365351 v 0 c 0,-0.201796 0.163605,-0.365351 0.365352,-0.365351 H 53.598679 c 0.201796,0 0.365352,0.163555 0.365352,0.365351 v 0 c 0,0.201796 -0.163556,0.365351 -0.365352,0.365351"
       style="display:none;opacity:0.997;fill:#f8d530;fill-opacity:1;fill-rule:nonzero;stroke:none;stroke-width:0.0121784"
       id="path98" />
    <g
       id="g898"
       inkscape:label="road-strip"
       style="display:inline">
      <rect
         style="fill:#332f2f;fill-opacity:1;fill-rule:evenodd;stroke:none;stroke-width:0.450645;stroke-linecap:round;stroke-linejoin:round;stroke-opacity:1;paint-order:stroke fill markers"
         id="rect884"
         width="6.3978262"
         height="0.91291642"
         x="-0.93874633"
         y="46.879269"
         transform="matrix(0.99998824,-0.00484895,0.14824279,0.988951,0,0)" />
      <rect
         style="fill:#332f2f;fill-opacity:1;fill-rule:evenodd;stroke:none;stroke-width:0.450645;stroke-linecap:round;stroke-linejoin:round;stroke-opacity:1;paint-order:stroke fill markers"
         id="rect886"
         width="6.3978262"
         height="0.91291642"
         x="9.6370249"
         y="46.931126"
         transform="matrix(0.99998824,-0.00484895,0.14824279,0.988951,0,0)" />
      <rect
         style="fill:#332f2f;fill-opacity:1;fill-rule:evenodd;stroke:none;stroke-width:0.450645;stroke-linecap:round;stroke-linejoin:round;stroke-opacity:1;paint-order:stroke fill markers"
         id="rect888"
         width="6.3978262"
         height="0.91291642"
         x="20.212795"
         y="46.982983"
         transform="matrix(0.99998824,-0.00484895,0.14824279,0.988951,0,0)" />
      <rect
         style="fill:#332f2f;fill-opacity:1;fill-rule:evenodd;stroke:none;stroke-width:0.450645;stroke-linecap:round;stroke-linejoin:round;stroke-opacity:1;paint-order:stroke fill markers"
         id="rect890"
         width="6.3978262"
         height="0.91291642"
         x="30.788567"
         y="47.03484"
         transform="matrix(0.99998824,-0.00484895,0.14824279,0.988951,0,0)" />
      <rect
         style="fill:#332f2f;fill-opacity:1;fill-rule:evenodd;stroke:none;stroke-width:0.450645;stroke-linecap:round;stroke-linejoin:round;stroke-opacity:1;paint-order:stroke fill markers"
         id="rect892"
         width="6.3978262"
         height="0.91291642"
         x="41.364334"
         y="47.086697"
         transform="matrix(0.99998824,-0.00484895,0.14824279,0.988951,0,0)" />
      <rect
         style="fill:#332f2f;fill-opacity:1;fill-rule:evenodd;stroke:none;stroke-width:0.450645;stroke-linecap:round;stroke-linejoin:round;stroke-opacity:1;paint-order:stroke fill markers"
         id="rect894"
         width="6.3978262"
         height="0.91291642"
         x="51.940102"
         y="47.138554"
         transform="matrix(0.99998824,-0.00484895,0.14824279,0.988951,0,0)" />
      <rect
         style="fill:#332f2f;fill-opacity:1;fill-rule:evenodd;stroke:none;stroke-width:0.450645;stroke-linecap:round;stroke-linejoin:round;stroke-opacity:1;paint-order:stroke fill markers"
         id="rect896"
         width="6.3978262"
         height="0.91291642"
         x="62.515869"
         y="47.190411"
         transform="matrix(0.99998824,-0.00484895,0.14824279,0.988951,0,0)" />
      <rect
         style="fill:#332f2f;fill-opacity:1;fill-rule:evenodd;stroke:none;stroke-width:0.450645;stroke-linecap:round;stroke-linejoin:round;stroke-opacity:1;paint-order:stroke fill markers"
         id="rect900"
         width="6.3978262"
         height="0.91291642"
         x="73.091644"
         y="47.242268"
         transform="matrix(0.99998824,-0.00484895,0.14824279,0.988951,0,0)" />
      <rect
         style="fill:#332f2f;fill-opacity:1;fill-rule:evenodd;stroke:none;stroke-width:0.450645;stroke-linecap:round;stroke-linejoin:round;stroke-opacity:1;paint-order:stroke fill markers"
         id="rect902"
         width="6.3978262"
         height="0.91291642"
         x="83.667419"
         y="47.294125"
         transform="matrix(0.99998824,-0.00484895,0.14824279,0.988951,0,0)" />
    </g>
  </g>
</svg>
