<?xml version="1.0"?>
<svg xmlns="http://www.w3.org/2000/svg" xmlns:xlink="http://www.w3.org/1999/xlink" xmlns:svgjs="http://svgjs.com/svgjs" version="1.1" width="512" height="512" x="0" y="0" viewBox="0 0 512.004 512.004" style="enable-background:new 0 0 512 512" xml:space="preserve" class=""><g><g xmlns="http://www.w3.org/2000/svg"><path d="m420.983 365.66h-121.593v-160.674h51.536c-.584-43.838-8.807-88.45-22.77-123.132-12.877-31.985-29.647-51.854-43.766-51.854s-30.889 19.869-43.766 51.854c-13.962 34.681-22.185 79.294-22.77 123.132h51.536v160.674h-96.412l-44.034-44.033c-31.563-31.563-82.918-31.563-114.48 0-2.813 2.813-4.394 6.628-4.394 10.606s1.581 7.794 4.394 10.606l108.38 108.38c-.227.568-.433 1.149-.594 1.756l-10.619 40.193c-2.116 8.009 2.662 16.218 10.671 18.334 1.284.339 2.573.501 3.841.501 6.643 0 12.716-4.447 14.493-11.173l10.362-39.222h289.75v35.392c0 8.284 6.716 15 15 15s15-6.716 15-15v-35.391h16.184c8.284 0 15-6.716 15-15 .001-44.635-36.313-80.949-80.949-80.949z" fill="#ffffff" data-original="#000000" style="" class=""/><path d="m355.985 70.65c15.336 38.091 24.351 86.784 24.944 134.336h78.447c8.284 0 15-6.716 15-15 0-104.758-85.227-189.986-189.986-189.986 27.827 0 53.253 25.091 71.595 70.65z" fill="#ffffff" data-original="#000000" style="" class=""/><path d="m212.794 70.65c18.343-45.559 43.769-70.65 71.596-70.65-104.76 0-189.987 85.228-189.987 189.986 0 8.284 6.716 15 15 15h78.447c.594-47.551 9.609-96.244 24.944-134.336z" fill="#ffffff" data-original="#000000" style="" class=""/></g></g></svg>
