<?xml version="1.0"?>
<svg xmlns="http://www.w3.org/2000/svg" xmlns:xlink="http://www.w3.org/1999/xlink" xmlns:svgjs="http://svgjs.com/svgjs" version="1.1" width="512" height="512" x="0" y="0" viewBox="0 0 24 24" style="enable-background:new 0 0 512 512" xml:space="preserve"><g><path xmlns="http://www.w3.org/2000/svg" d="m20.69 14.94c-.58.36-1.13.64-1.62.84-.34.15-.71.22-1.07.22s-.73-.07-1.07-.22c-.87-.36-1.93-.96-2.96-1.78h-9.55l1.48-3.4c.16-.36.52-.6.91-.6h3.94c-.28-.62-.5-1.29-.62-2h-3.32c-1.19 0-2.27.71-2.75 1.8l-1.98 4.55c-.01.02 0 .04-.01.07-1.22.62-2.07 1.87-2.07 3.33v3.75c0 1.38 1.12 2.5 2.5 2.5s2.5-1.12 2.5-2.5v-.5h12v.5c0 1.38 1.12 2.5 2.5 2.5s2.5-1.12 2.5-2.5v-3.75c0-1.13-.51-2.14-1.31-2.81zm-14.69 4.06h-2c-.55 0-1-.45-1-1s.45-1 1-1h2c.55 0 1 .45 1 1s-.45 1-1 1zm12 0h-2c-.55 0-1-.45-1-1s.45-1 1-1h2c.55 0 1 .45 1 1s-.45 1-1 1z" fill="#ffffff" data-original="#000000" style=""/><path xmlns="http://www.w3.org/2000/svg" d="m23.491 1.826-5.25-1.786c-.156-.054-.326-.054-.482 0l-5.25 1.786c-.305.103-.509.389-.509.71v4.018c0 4.904 5.474 7.288 5.707 7.387.188.079.398.079.586 0 .233-.099 5.707-2.483 5.707-7.387v-4.018c0-.321-.204-.607-.509-.71zm-2.205 3.792-2.75 3.5c-.35.447-1.006.512-1.436.142l-1.75-1.5c-.42-.359-.469-.991-.108-1.41.359-.419.991-.467 1.409-.108l.958.821 2.105-2.679c.341-.434.969-.511 1.404-.168.434.339.51.968.168 1.402z" fill="#ffffff" data-original="#000000" style=""/></g></svg>
