<?xml version="1.0" encoding="UTF-8" standalone="no"?>
<svg
   xmlns:dc="http://purl.org/dc/elements/1.1/"
   xmlns:cc="http://creativecommons.org/ns#"
   xmlns:rdf="http://www.w3.org/1999/02/22-rdf-syntax-ns#"
   xmlns:svg="http://www.w3.org/2000/svg"
   xmlns="http://www.w3.org/2000/svg"
   xmlns:xlink="http://www.w3.org/1999/xlink"
   xmlns:sodipodi="http://sodipodi.sourceforge.net/DTD/sodipodi-0.dtd"
   xmlns:inkscape="http://www.inkscape.org/namespaces/inkscape"
   version="1.1"
   id="Capa_1"
   x="0px"
   y="0px"
   viewBox="0 0 64 18"
   xml:space="preserve"
   sodipodi:docname="rating.svg"
   inkscape:version="1.0.2 (1.0.2+r75+1)"
   width="64"
   height="18"><metadata
   id="metadata67"><rdf:RDF><cc:Work
       rdf:about=""><dc:format>image/svg+xml</dc:format><dc:type
         rdf:resource="http://purl.org/dc/dcmitype/StillImage" /><dc:title></dc:title></cc:Work></rdf:RDF></metadata><defs
   id="defs65"><linearGradient
     inkscape:collect="always"
     id="linearGradient912"><stop
       style="stop-color:#ff6c00;stop-opacity:1"
       offset="0"
       id="stop908" /><stop
       style="stop-color:#faff00;stop-opacity:1"
       offset="1"
       id="stop910" /></linearGradient><linearGradient
     inkscape:collect="always"
     id="linearGradient896"><stop
       style="stop-color:#000000;stop-opacity:1;"
       offset="0"
       id="stop892" /><stop
       style="stop-color:#000000;stop-opacity:0;"
       offset="1"
       id="stop894" /></linearGradient><linearGradient
     inkscape:collect="always"
     xlink:href="#linearGradient912"
     id="linearGradient900"
     x1="104.28932"
     y1="255.99661"
     x2="199.13586"
     y2="255.99661"
     gradientUnits="userSpaceOnUse" /><linearGradient
     inkscape:collect="always"
     xlink:href="#linearGradient896"
     id="linearGradient902"
     x1="208.57832"
     y1="255.99661"
     x2="303.42484"
     y2="255.99661"
     gradientUnits="userSpaceOnUse" /><linearGradient
     inkscape:collect="always"
     xlink:href="#linearGradient896"
     id="linearGradient904"
     x1="312.86731"
     y1="255.99661"
     x2="407.71368"
     y2="255.99661"
     gradientUnits="userSpaceOnUse" /><linearGradient
     inkscape:collect="always"
     xlink:href="#linearGradient896"
     id="linearGradient906"
     x1="417.15631"
     y1="255.99956"
     x2="512.00006"
     y2="255.99956"
     gradientUnits="userSpaceOnUse" /><linearGradient
     inkscape:collect="always"
     xlink:href="#linearGradient912"
     id="linearGradient914"
     gradientUnits="userSpaceOnUse"
     x1="0.00031714476"
     y1="255.99661"
     x2="94.846878"
     y2="255.99661" /><linearGradient
     inkscape:collect="always"
     xlink:href="#linearGradient912"
     id="linearGradient916"
     gradientUnits="userSpaceOnUse"
     x1="208.57832"
     y1="255.99661"
     x2="303.42484"
     y2="255.99661" /><linearGradient
     inkscape:collect="always"
     xlink:href="#linearGradient912"
     id="linearGradient918"
     gradientUnits="userSpaceOnUse"
     x1="312.86731"
     y1="255.99661"
     x2="407.71368"
     y2="255.99661" /><linearGradient
     inkscape:collect="always"
     xlink:href="#linearGradient912"
     id="linearGradient920"
     gradientUnits="userSpaceOnUse"
     x1="417.15631"
     y1="255.99956"
     x2="512.00006"
     y2="255.99956" /><linearGradient
     inkscape:collect="always"
     xlink:href="#linearGradient912"
     id="linearGradient885"
     gradientUnits="userSpaceOnUse"
     x1="0.00031714476"
     y1="255.99661"
     x2="94.846878"
     y2="255.99661" /><linearGradient
     inkscape:collect="always"
     xlink:href="#linearGradient912"
     id="linearGradient887"
     gradientUnits="userSpaceOnUse"
     x1="104.28932"
     y1="255.99661"
     x2="199.13586"
     y2="255.99661" /><linearGradient
     inkscape:collect="always"
     xlink:href="#linearGradient912"
     id="linearGradient889"
     gradientUnits="userSpaceOnUse"
     x1="104.28932"
     y1="255.99661"
     x2="199.13586"
     y2="255.99661" /><linearGradient
     inkscape:collect="always"
     xlink:href="#linearGradient896"
     id="linearGradient891"
     gradientUnits="userSpaceOnUse"
     x1="208.57832"
     y1="255.99661"
     x2="303.42484"
     y2="255.99661" /><linearGradient
     inkscape:collect="always"
     xlink:href="#linearGradient896"
     id="linearGradient893"
     gradientUnits="userSpaceOnUse"
     x1="312.86731"
     y1="255.99661"
     x2="407.71368"
     y2="255.99661" /><linearGradient
     inkscape:collect="always"
     xlink:href="#linearGradient896"
     id="linearGradient895"
     gradientUnits="userSpaceOnUse"
     x1="417.15631"
     y1="255.99956"
     x2="512.00006"
     y2="255.99956" /></defs><sodipodi:namedview
   pagecolor="#ffffff"
   bordercolor="#666666"
   borderopacity="1"
   objecttolerance="10"
   gridtolerance="10"
   guidetolerance="10"
   inkscape:pageopacity="0"
   inkscape:pageshadow="2"
   inkscape:window-width="1318"
   inkscape:window-height="704"
   id="namedview63"
   showgrid="false"
   inkscape:zoom="8.5937501"
   inkscape:cx="31.949562"
   inkscape:cy="16.577042"
   inkscape:window-x="48"
   inkscape:window-y="27"
   inkscape:window-maximized="1"
   inkscape:current-layer="Capa_1"
   inkscape:document-rotation="0" />
<g
   id="g6"
   transform="matrix(0.1191574,0,0,0.1191574,1.4212553,-21.757363)">
	<g
   id="g4"
   style="fill:url(#linearGradient914);fill-opacity:1">
		<path
   d="m 94.526,244.611 c -0.769,-2.359 -2.809,-4.074 -5.267,-4.432 L 64.36,236.561 53.234,214.08 c -2.203,-4.445 -9.484,-4.445 -11.687,0 l -11.126,22.481 -24.84,3.618 c -2.451,0.358 -4.491,2.079 -5.26,4.439 -0.769,2.353 -0.13,4.941 1.649,6.674 l 18.016,17.56 -4.25,24.775 c -0.417,2.444 0.587,4.921 2.594,6.381 2.014,1.453 4.68,1.643 6.87,0.489 l 22.188,-11.7 22.253,11.7 c 0.952,0.502 1.995,0.75 3.031,0.75 1.349,0 2.698,-0.424 3.839,-1.238 2.008,-1.467 3.011,-3.937 2.594,-6.381 l -4.243,-24.775 18.016,-17.56 c 1.779,-1.728 2.417,-4.322 1.648,-6.682 z"
   id="path2"
   style="fill:url(#linearGradient885);fill-opacity:1" />
	</g>
</g>
<g
   id="g12"
   style="fill:url(#linearGradient900);fill-opacity:1"
   transform="matrix(0.1191574,0,0,0.1191574,1.4212553,-21.757363)">
	<g
   id="g10"
   style="fill:url(#linearGradient889);fill-opacity:1">
		<path
   d="m 198.815,244.611 c -0.769,-2.359 -2.809,-4.074 -5.267,-4.432 l -24.899,-3.618 -11.126,-22.481 c -2.203,-4.445 -9.484,-4.445 -11.687,0 l -11.126,22.481 -24.84,3.618 c -2.451,0.358 -4.491,2.079 -5.26,4.439 -0.769,2.353 -0.13,4.941 1.649,6.674 l 18.016,17.56 -4.25,24.775 c -0.417,2.444 0.587,4.928 2.594,6.381 2.008,1.453 4.68,1.643 6.87,0.489 l 22.188,-11.7 22.253,11.7 c 0.952,0.502 1.995,0.75 3.031,0.75 1.349,0 2.698,-0.424 3.839,-1.238 2.008,-1.467 3.011,-3.937 2.594,-6.381 l -4.243,-24.775 18.016,-17.56 c 1.779,-1.728 2.417,-4.322 1.648,-6.682 z"
   id="path8"
   style="fill:url(#linearGradient887);fill-opacity:1" />
	</g>
</g>
<g
   id="g18"
   style="fill:url(#linearGradient902);fill-opacity:1"
   transform="matrix(0.1191574,0,0,0.1191574,1.4212553,-21.757363)">
	<g
   id="g16"
   style="fill:url(#linearGradient891);fill-opacity:1">
		<path
   d="m 303.104,244.611 c -0.769,-2.359 -2.809,-4.074 -5.267,-4.432 l -24.899,-3.618 -11.126,-22.481 c -2.203,-4.445 -9.484,-4.445 -11.687,0 l -11.126,22.481 -24.84,3.618 c -2.451,0.358 -4.491,2.079 -5.26,4.439 -0.769,2.353 -0.13,4.941 1.649,6.674 l 18.016,17.56 -4.25,24.775 c -0.417,2.444 0.587,4.921 2.594,6.381 2.014,1.453 4.68,1.643 6.87,0.489 l 22.187,-11.7 22.253,11.7 c 0.952,0.502 1.995,0.75 3.031,0.75 1.349,0 2.698,-0.424 3.839,-1.238 2.008,-1.467 3.011,-3.937 2.594,-6.381 l -4.243,-24.775 18.016,-17.56 c 1.78,-1.728 2.418,-4.322 1.649,-6.682 z"
   id="path14"
   style="fill:url(#linearGradient916);fill-opacity:1" />
	</g>
</g>
<g
   id="g24"
   style="fill:url(#linearGradient904);fill-opacity:1"
   transform="matrix(0.1191574,0,0,0.1191574,1.4212553,-21.757363)">
	<g
   id="g22"
   style="fill:url(#linearGradient893);fill-opacity:1">
		<path
   d="m 407.393,244.611 c -0.769,-2.359 -2.809,-4.074 -5.267,-4.432 l -24.899,-3.618 -11.126,-22.481 c -2.203,-4.445 -9.484,-4.445 -11.687,0 l -11.126,22.481 -24.84,3.618 c -2.451,0.358 -4.491,2.079 -5.26,4.439 -0.769,2.353 -0.13,4.941 1.649,6.674 l 18.016,17.56 -4.25,24.775 c -0.417,2.444 0.587,4.921 2.594,6.381 2.014,1.453 4.68,1.643 6.87,0.489 l 22.187,-11.7 22.253,11.7 c 0.952,0.502 1.995,0.75 3.031,0.75 1.349,0 2.698,-0.424 3.839,-1.238 2.008,-1.467 3.011,-3.937 2.594,-6.381 l -4.243,-24.775 18.016,-17.56 c 1.779,-1.728 2.418,-4.322 1.649,-6.682 z"
   id="path20"
   style="fill:url(#linearGradient918);fill-opacity:1" />
	</g>
</g>
<g
   id="g30"
   style="fill:url(#linearGradient906);fill-opacity:1"
   transform="matrix(0.1191574,0,0,0.1191574,1.4212553,-21.757711)">
	<g
   id="g28"
   style="fill:url(#linearGradient895);fill-opacity:1">
		<path
   d="m 511.682,244.611 c -0.776,-2.359 -2.809,-4.074 -5.267,-4.432 L 481.516,236.561 470.39,214.08 c -2.203,-4.445 -9.484,-4.445 -11.687,0 l -11.126,22.481 -24.84,3.618 c -2.451,0.358 -4.491,2.079 -5.26,4.439 -0.769,2.353 -0.13,4.941 1.649,6.674 l 18.016,17.56 -4.25,24.775 c -0.417,2.444 0.587,4.921 2.594,6.381 1.134,0.821 2.477,1.238 3.826,1.238 1.043,0 2.086,-0.248 3.05,-0.75 l 22.188,-11.7 22.259,11.7 c 2.19,1.167 4.849,0.971 6.864,-0.495 2.001,-1.46 3.005,-3.93 2.588,-6.375 l -4.243,-24.775 18.016,-17.56 c 1.778,-1.726 2.411,-4.32 1.648,-6.68 z"
   id="path26"
   style="fill:url(#linearGradient920);fill-opacity:1" />
	</g>
</g>
<g
   id="g32">
</g>
<g
   id="g34">
</g>
<g
   id="g36">
</g>
<g
   id="g38">
</g>
<g
   id="g40">
</g>
<g
   id="g42">
</g>
<g
   id="g44">
</g>
<g
   id="g46">
</g>
<g
   id="g48">
</g>
<g
   id="g50">
</g>
<g
   id="g52">
</g>
<g
   id="g54">
</g>
<g
   id="g56">
</g>
<g
   id="g58">
</g>
<g
   id="g60">
</g>
</svg>
