<?xml version="1.0" encoding="UTF-8" standalone="no"?>
<svg
   xmlns:dc="http://purl.org/dc/elements/1.1/"
   xmlns:cc="http://creativecommons.org/ns#"
   xmlns:rdf="http://www.w3.org/1999/02/22-rdf-syntax-ns#"
   xmlns:svg="http://www.w3.org/2000/svg"
   xmlns="http://www.w3.org/2000/svg"
   xmlns:sodipodi="http://sodipodi.sourceforge.net/DTD/sodipodi-0.dtd"
   xmlns:inkscape="http://www.inkscape.org/namespaces/inkscape"
   version="1.1"
   width="512"
   height="260"
   x="0"
   y="0"
   viewBox="0 0 98.967 50.25668"
   xml:space="preserve"
   class=""
   id="svg44"
   sodipodi:docname="sedan-car-model.svg"
   inkscape:version="1.0.2 (1.0.2+r75+1)"><metadata
     id="metadata50"><rdf:RDF><cc:Work
         rdf:about=""><dc:format>image/svg+xml</dc:format><dc:type
           rdf:resource="http://purl.org/dc/dcmitype/StillImage" /><dc:title></dc:title></cc:Work></rdf:RDF></metadata><defs
     id="defs48" /><sodipodi:namedview
     pagecolor="#ffffff"
     bordercolor="#666666"
     borderopacity="1"
     objecttolerance="10"
     gridtolerance="10"
     guidetolerance="10"
     inkscape:pageopacity="0"
     inkscape:pageshadow="2"
     inkscape:window-width="1318"
     inkscape:window-height="704"
     id="namedview46"
     showgrid="false"
     inkscape:zoom="0.53710938"
     inkscape:cx="252.43057"
     inkscape:cy="330.41046"
     inkscape:window-x="48"
     inkscape:window-y="27"
     inkscape:window-maximized="1"
     inkscape:current-layer="svg44" /><g
     id="g42"
     transform="matrix(-1,0,0,1,98.965419,-23.581983)">
<g
   id="g10">
	<g
   id="g8">
		<path
   d="m 17.275,52.156 c -4.124,0 -7.468,3.343 -7.468,7.468 0,0.318 0.026,0.631 0.066,0.938 0.463,3.681 3.596,6.528 7.401,6.528 3.908,0 7.112,-3.004 7.437,-6.83 0.017,-0.209 0.031,-0.422 0.031,-0.637 10e-4,-4.124 -3.342,-7.467 -7.467,-7.467 z m -3.738,4.654 1.522,1.523 c -0.118,0.203 -0.211,0.422 -0.271,0.656 h -2.146 c 0.11,-0.812 0.421,-1.554 0.895,-2.179 z m -0.905,3.472 h 2.163 c 0.061,0.23 0.151,0.448 0.271,0.648 l -1.526,1.525 c -0.473,-0.62 -0.791,-1.362 -0.908,-2.173 z m 3.997,3.981 C 15.82,64.15 15.085,63.833 14.463,63.364 l 1.518,-1.519 c 0.2,0.117 0.419,0.203 0.648,0.263 z m 0,-7.123 c -0.235,0.062 -0.455,0.154 -0.66,0.275 l -1.521,-1.521 c 0.625,-0.475 1.367,-0.789 2.181,-0.902 z m 1.293,-2.15 c 0.814,0.113 1.557,0.429 2.181,0.903 l -1.52,1.521 c -0.204,-0.121 -0.426,-0.213 -0.66,-0.275 z m 0,9.271 v -2.152 c 0.23,-0.061 0.447,-0.146 0.647,-0.264 l 1.519,1.519 c -0.622,0.469 -1.358,0.784 -2.166,0.897 z m 3.092,-1.799 -1.531,-1.533 c 0.12,-0.201 0.217,-0.416 0.278,-0.646 h 2.146 c -0.114,0.808 -0.419,1.556 -0.893,2.179 z m -1.25,-3.473 c -0.061,-0.234 -0.153,-0.453 -0.271,-0.656 l 1.524,-1.523 c 0.471,0.625 0.782,1.367 0.894,2.18 h -2.147 z"
   fill="#3d3d3d"
   data-original="#000000"
   id="path2" />
		<path
   d="m 79.284,52.156 c -4.124,0 -7.468,3.343 -7.468,7.468 0,0.318 0.026,0.631 0.066,0.938 0.463,3.681 3.596,6.528 7.4,6.528 3.908,0 7.112,-3.004 7.438,-6.83 0.017,-0.209 0.031,-0.422 0.031,-0.637 0.002,-4.124 -3.342,-7.467 -7.467,-7.467 z m -3.738,4.654 1.521,1.523 c -0.118,0.203 -0.211,0.422 -0.271,0.656 H 74.65 c 0.111,-0.812 0.422,-1.554 0.896,-2.179 z m -0.904,3.472 h 2.163 c 0.061,0.23 0.151,0.448 0.271,0.648 l -1.525,1.525 c -0.475,-0.62 -0.794,-1.362 -0.909,-2.173 z m 3.996,3.981 c -0.809,-0.113 -1.544,-0.43 -2.166,-0.899 l 1.518,-1.519 c 0.2,0.117 0.419,0.203 0.648,0.263 z m 0,-7.123 c -0.235,0.062 -0.455,0.154 -0.66,0.275 l -1.521,-1.521 c 0.625,-0.475 1.366,-0.789 2.181,-0.902 z m 1.294,-2.15 c 0.814,0.113 1.557,0.429 2.181,0.903 l -1.521,1.521 c -0.204,-0.121 -0.426,-0.215 -0.66,-0.275 z m 0,9.271 v -2.152 c 0.23,-0.061 0.447,-0.146 0.647,-0.264 l 1.519,1.519 c -0.622,0.469 -1.359,0.784 -2.166,0.897 z m 3.091,-1.799 -1.531,-1.531 c 0.12,-0.202 0.218,-0.416 0.278,-0.647 h 2.146 c -0.114,0.807 -0.418,1.555 -0.893,2.178 z m -1.25,-3.473 c -0.061,-0.234 -0.152,-0.453 -0.271,-0.656 l 1.523,-1.523 c 0.472,0.625 0.782,1.367 0.895,2.18 h -2.147 z"
   fill="#3d3d3d"
   data-original="#000000"
   id="path4" />
		<path
   d="m 97.216,48.29 v -5.526 c 0,-0.889 -0.646,-1.642 -1.524,-1.779 -2.107,-0.33 -5.842,-0.953 -7.52,-1.47 -2.406,-0.742 -11.702,-4.678 -14.921,-5.417 -3.22,-0.739 -17.738,-4.685 -31.643,0.135 -2.353,0.815 -12.938,5.875 -19.162,8.506 -1.833,0.04 -19.976,3.822 -20.942,6.414 -0.966,2.593 -1.269,3.851 -1.447,4.509 -0.178,0.658 0,3.807 1.348,6 1.374,0.777 4.019,1.299 7.077,1.649 C 8.447,61.124 8.409,60.94 8.385,60.751 8.332,60.347 8.307,59.978 8.307,59.626 c 0,-4.945 4.022,-8.969 8.968,-8.969 4.946,0 8.968,4.023 8.968,8.969 0,0.254 -0.017,0.506 -0.036,0.754 -0.047,0.555 -0.147,1.094 -0.292,1.613 0.007,0 0.024,0 0.024,0 l 44.516,-0.896 c -0.02,-0.115 -0.046,-0.229 -0.061,-0.346 -0.053,-0.402 -0.078,-0.772 -0.078,-1.125 0,-4.945 4.022,-8.968 8.968,-8.968 4.946,0 8.969,4.022 8.969,8.968 0,0.019 -0.002,0.035 -0.003,0.053 l 0.19,-0.016 7.611,-1.433 c 0,0 2.915,-1.552 2.915,-5.822 0.001,-2.848 -1.75,-4.118 -1.75,-4.118 z M 53.057,43.051 36.432,43.56 c 0.306,-2.491 -1.169,-3.05 -1.169,-3.05 6.609,-5.999 19.929,-6.202 19.929,-6.202 z m 18.658,-0.761 -15.15,0.509 1.373,-8.49 c 7.83,-0.102 12.303,1.626 12.303,1.626 l 2.237,3.61 z m 8.541,-0.052 h -4.221 l -4.22,-5.795 c 3.166,1.26 5.7,2.502 7.209,3.287 0.916,0.476 1.416,1.493 1.232,2.508 z"
   fill="#3d3d3d"
   data-original="#000000"
   id="path6" />
	</g>
</g>
<g
   id="g12">
</g>
<g
   id="g14">
</g>
<g
   id="g16">
</g>
<g
   id="g18">
</g>
<g
   id="g20">
</g>
<g
   id="g22">
</g>
<g
   id="g24">
</g>
<g
   id="g26">
</g>
<g
   id="g28">
</g>
<g
   id="g30">
</g>
<g
   id="g32">
</g>
<g
   id="g34">
</g>
<g
   id="g36">
</g>
<g
   id="g38">
</g>
<g
   id="g40">
</g>
</g></svg>
