<?xml version="1.0"?>
<svg xmlns="http://www.w3.org/2000/svg" xmlns:xlink="http://www.w3.org/1999/xlink" xmlns:svgjs="http://svgjs.com/svgjs" version="1.1" width="512" height="512" x="0" y="0" viewBox="0 0 512 512" style="enable-background:new 0 0 512 512" xml:space="preserve"><g><g xmlns="http://www.w3.org/2000/svg" id="Layer_3" data-name="Layer 3"><path d="m167.316 473.596h177.367v10.204h-177.367z" fill="#3d3d3d" data-original="#000000" style=""/><path d="m218.237 196.105h75.526a4.855 4.855 0 1 0 0-9.71h-75.526a4.855 4.855 0 1 0 0 9.71z" fill="#3d3d3d" data-original="#000000" style=""/><path d="m409.273 373.991a1.008 1.008 0 0 0 -1.008-1.006h-304.53a1.008 1.008 0 0 0 -1.008 1.006v27.924h306.546z" fill="#3d3d3d" data-original="#000000" style=""/><path d="m256 218.773a148.862 148.862 0 0 1 29.325 2.909v-15.577h-58.65v15.579a148.787 148.787 0 0 1 29.325-2.911z" fill="#3d3d3d" data-original="#000000" style=""/><path d="m325.1 443.392h136.608v-30.384a1.094 1.094 0 0 0 -1.094-1.093h-135.514z" fill="#3d3d3d" data-original="#000000" style=""/><path d="m262.119 86.888h-12.238l-19.921 89.507h52.08z" fill="#3d3d3d" data-original="#000000" style=""/><path d="m246.752 76.888h18.5a4.263 4.263 0 1 0 0-8.525h-4.252v-35.163a5 5 0 1 0 -10 0v35.163h-4.248a4.263 4.263 0 1 0 0 8.525z" fill="#3d3d3d" data-original="#000000" style=""/><path d="m256 228.773c-74.946 0-136.213 59.758-138.851 134.212h277.751c-2.643-74.454-63.929-134.212-138.9-134.212zm-59.9 47.539a141.064 141.064 0 0 0 -38.467 43.931 5 5 0 0 1 -8.732-4.873 151.13 151.13 0 0 1 41.208-47.07 5 5 0 0 1 5.987 8.01zm19.711-12.312c-1.662.853-3.334 1.756-4.973 2.683a5 5 0 1 1 -4.926-8.7c1.757-.993 3.55-1.961 5.331-2.876a5 5 0 1 1 4.568 8.9z" fill="#3d3d3d" data-original="#000000" style=""/><path d="m186.9 411.915h-135.514a1.094 1.094 0 0 0 -1.094 1.093v30.384h136.608z" fill="#3d3d3d" data-original="#000000" style=""/><path d="m494.992 453.324-28.269.068h-112.039v30.408h140.307a1.008 1.008 0 0 0 1.009-1v-28.471a1.007 1.007 0 0 0 -1.008-1z" fill="#3d3d3d" data-original="#000000" style=""/><path d="m167.316 453.392h177.367v10.204h-177.367z" fill="#3d3d3d" data-original="#000000" style=""/><path d="m157.316 483.8v-30.408h-112.037l-28.269-.07a1.005 1.005 0 0 0 -1.007 1v28.478a1.008 1.008 0 0 0 1.009 1z" fill="#3d3d3d" data-original="#000000" style=""/><path d="m196.9 411.915h118.199v10.739h-118.199z" fill="#3d3d3d" data-original="#000000" style=""/><path d="m196.9 432.653h118.199v10.739h-118.199z" fill="#3d3d3d" data-original="#000000" style=""/></g></g></svg>
