<?xml version="1.0" encoding="UTF-8" standalone="no"?>
<svg
   xmlns:dc="http://purl.org/dc/elements/1.1/"
   xmlns:cc="http://creativecommons.org/ns#"
   xmlns:rdf="http://www.w3.org/1999/02/22-rdf-syntax-ns#"
   xmlns:svg="http://www.w3.org/2000/svg"
   xmlns="http://www.w3.org/2000/svg"
   xmlns:sodipodi="http://sodipodi.sourceforge.net/DTD/sodipodi-0.dtd"
   xmlns:inkscape="http://www.inkscape.org/namespaces/inkscape"
   version="1.1"
   width="512"
   height="350"
   x="0"
   y="0"
   viewBox="0 0 682.66672 466.21093"
   xml:space="preserve"
   id="svg6"
   sodipodi:docname="youtube.svg"
   inkscape:version="1.0.2 (1.0.2+r75+1)"><metadata
     id="metadata12"><rdf:RDF><cc:Work
         rdf:about=""><dc:format>image/svg+xml</dc:format><dc:type
           rdf:resource="http://purl.org/dc/dcmitype/StillImage" /><dc:title></dc:title></cc:Work></rdf:RDF></metadata><defs
     id="defs10" /><sodipodi:namedview
     pagecolor="#ffffff"
     bordercolor="#666666"
     borderopacity="1"
     objecttolerance="10"
     gridtolerance="10"
     guidetolerance="10"
     inkscape:pageopacity="0"
     inkscape:pageshadow="2"
     inkscape:window-width="1318"
     inkscape:window-height="704"
     id="namedview8"
     showgrid="false"
     inkscape:zoom="0.53710938"
     inkscape:cx="240.97898"
     inkscape:cy="208.80546"
     inkscape:window-x="48"
     inkscape:window-y="27"
     inkscape:window-maximized="1"
     inkscape:current-layer="svg6" /><g
     id="g4"
     transform="translate(21.33397,15.136716)"><path
       d="M 626.8125,64.035156 C 619.4375,36.617188 597.82031,15.003906 570.40625,7.621094 520.32422,-6.082031 319.99219,-6.082031 319.99219,-6.082031 c 0,0 -200.32422,0 -250.406252,13.183593 -26.886719,7.375 -49.03125,29.519532 -56.40625,56.933594 C 0,114.11328 0,217.96875 0,217.96875 c 0,0 0,104.37891 13.179688,153.93359 7.382812,27.41407 28.992187,49.02735 56.410156,56.41016 C 120.19531,442.01953 320,442.01953 320,442.01953 c 0,0 200.32422,0 250.40625,-13.18359 27.41797,-7.37891 49.03125,-28.99219 56.41406,-56.40625 13.17578,-50.08203 13.17578,-153.9336 13.17578,-153.9336 0,0 0.52735,-104.38281 -13.18359,-154.460934 z M 256.21094,313.91406 V 122.02344 l 166.58593,95.94531 z m 0,0"
       fill="#3d3d3d"
       data-original="#000000"
       id="path2" /></g></svg>
